<svg width="12" height="12" viewBox="0 0 12 12" fill="none" xmlns="http://www.w3.org/2000/svg">
<g clip-path="url(#clip0_252_1540)">
<path d="M6 0C2.68623 0 0 2.68639 0 6C0 9.31361 2.68623 12 6 12C9.31377 12 12 9.31377 12 6C12.0151 2.70145 9.35321 0.015218 6.05465 0C6.03649 0 6.01816 0 6 0ZM6 10.909C3.28873 10.909 1.09095 8.71127 1.09095 6C1.09095 3.28873 3.28873 1.09095 6 1.09095C8.71127 1.09095 10.909 3.28873 10.909 6C10.8942 8.70505 8.70505 10.8942 6 10.909Z" fill="#94A3B8"/>
<path d="M6 3.81826C6.45186 3.81826 6.81817 3.45195 6.81817 3.00008C6.81817 2.54822 6.45186 2.18191 6 2.18191C5.54813 2.18191 5.18182 2.54822 5.18182 3.00008C5.18182 3.45195 5.54813 3.81826 6 3.81826Z" fill="#94A3B8"/>
<path d="M8.99992 4.09087H2.99992C2.69867 4.09087 2.45453 4.33501 2.45453 4.63627C2.45453 4.93752 2.69867 5.18166 2.99992 5.18166H4.90905V6.49074L4.36366 9.16339C4.3126 9.46268 4.50406 9.75002 4.80007 9.81793H4.90922C5.1689 9.81302 5.39292 9.63384 5.45461 9.38152L5.94551 6.81785H6.05466L6.54556 9.38152C6.60742 9.63384 6.83127 9.81302 7.09096 9.81793H7.2001C7.49612 9.75002 7.68757 9.46268 7.63652 9.16339L7.09112 6.49074V5.18166H9.00025C9.3015 5.18166 9.54565 4.93752 9.54565 4.63627C9.54565 4.33501 9.3015 4.09087 9.00025 4.09087H8.99992Z" fill="#94A3B8"/>
</g>
<defs>
<clipPath id="clip0_252_1540">
<rect width="12" height="12" fill="white"/>
</clipPath>
</defs>
</svg>
