<svg width="15" height="12" viewBox="0 0 15 12" fill="none" xmlns="http://www.w3.org/2000/svg">
<g clip-path="url(#clip0_245_1465)">
<path d="M8.03837 11.0204C8.21536 11.1501 8.4071 11.2365 8.61359 11.2653C8.82008 11.2941 9.04132 11.2797 9.24781 11.2221C9.4543 11.1645 9.64604 11.0492 9.79353 10.9052C9.94103 10.7611 10.059 10.5738 10.1328 10.3866C10.2065 10.1849 10.2213 9.98319 10.1918 9.76711C10.1623 9.56542 10.0738 9.36374 9.95578 9.19087C9.83778 9.01801 9.66079 8.88835 9.46905 8.78751C9.27731 8.68667 9.07082 8.64346 8.84958 8.64346H0.737488" stroke="#94A3B8" stroke-linecap="round" stroke-linejoin="round"/>
<path d="M11.2095 3.35654C11.3865 3.12605 11.6077 2.95318 11.8732 2.83794C12.1387 2.72269 12.4189 2.67947 12.7139 2.70828C12.9941 2.7371 13.2744 2.82353 13.5103 2.98199C13.7463 3.14046 13.9381 3.35654 14.0708 3.60144C14.2036 3.84634 14.2626 4.13445 14.2478 4.40816C14.2478 4.69628 14.1446 4.95558 13.9971 5.20048C13.8496 5.44538 13.6283 5.63265 13.3776 5.77671C13.1269 5.92077 12.8466 5.9928 12.5516 5.9928H0.737488" stroke="#94A3B8" stroke-linecap="round" stroke-linejoin="round"/>
<path d="M6.01772 0.979591C6.19471 0.849939 6.38645 0.763505 6.59294 0.734693C6.79943 0.705882 7.02067 0.720287 7.22716 0.77791C7.43365 0.835533 7.62539 0.950779 7.77289 1.09484C7.92038 1.23889 8.03837 1.42617 8.11212 1.61344C8.18587 1.81513 8.20061 2.01681 8.17112 2.23289C8.14162 2.43457 8.05312 2.63625 7.93513 2.80912C7.81713 2.98199 7.64014 3.11164 7.4484 3.21248C7.25666 3.31332 7.05017 3.35654 6.82893 3.35654H0.737488" stroke="#94A3B8" stroke-linecap="round" stroke-linejoin="round"/>
</g>
<defs>
<clipPath id="clip0_245_1465">
<rect width="15" height="12" fill="white"/>
</clipPath>
</defs>
</svg>
