<svg width="11" height="12" viewBox="0 0 11 12" fill="none" xmlns="http://www.w3.org/2000/svg">
<g clip-path="url(#clip0_324_112)">
<path d="M5.49403 12C5.19673 12 4.91132 11.9172 4.6497 11.7751C4.38808 11.6213 4.17403 11.4083 4.03132 11.1598C3.86484 10.8757 3.95997 10.5207 4.24538 10.355C4.53078 10.1893 4.88754 10.284 5.05403 10.568C5.10159 10.639 5.16105 10.7101 5.2324 10.7456C5.37511 10.8284 5.57727 10.8284 5.73186 10.7456C5.80322 10.6982 5.87457 10.639 5.91024 10.568C6.07673 10.284 6.43349 10.1893 6.71889 10.355C7.0043 10.5207 7.09943 10.8757 6.94484 11.1598C6.80213 11.4083 6.58808 11.6213 6.32646 11.7751C6.06484 11.9172 5.77943 12 5.48213 12H5.49403Z" fill="#94A3B8"/>
<path d="M9.85839 9.2781H1.14163C0.927577 9.2781 0.713523 9.21893 0.523253 9.10059C0.332982 8.98225 0.19028 8.80473 0.0951446 8.60355C9.50857e-06 8.40236 -0.0237743 8.17751 0.0119014 7.96449C0.0475771 7.75148 0.142712 7.55029 0.297307 7.38461C0.297307 7.38461 0.297307 7.38461 0.297307 7.37278C0.975145 6.67455 1.61731 6.01183 1.61731 3.81065C1.61731 2.78106 2.02163 1.82248 2.74704 1.08876C4.22163 -0.366866 6.7665 -0.366866 8.2292 1.08876C8.9546 1.81065 9.35893 2.78106 9.35893 3.81065C9.35893 6.01183 10.0011 6.67455 10.6789 7.37278C10.8454 7.55029 10.9405 7.75148 10.9762 7.96449C11.0119 8.17751 10.9762 8.40236 10.893 8.60355C10.7978 8.80473 10.6551 8.98225 10.4768 9.10059C10.2865 9.21893 10.0724 9.28994 9.85839 9.28994V9.2781ZM5.49406 1.14793C4.78055 1.14793 4.10271 1.42012 3.60325 1.92899C3.10379 2.43787 2.81839 3.10059 2.81839 3.81065C2.81839 6.4497 1.96217 7.36094 1.20109 8.15384L9.85839 8.09467C9.06163 7.39645 8.16974 6.48521 8.16974 3.81065C8.16974 3.11242 7.88433 2.42603 7.38487 1.92899C6.88542 1.43195 6.19569 1.14793 5.49406 1.14793Z" fill="#94A3B8"/>
</g>
<defs>
<clipPath id="clip0_324_112">
<rect width="11" height="12" fill="white"/>
</clipPath>
</defs>
</svg>
