<svg width="15" height="12" viewBox="0 0 15 12" fill="none" xmlns="http://www.w3.org/2000/svg">
<g clip-path="url(#clip0_325_184)">
<path d="M12.6898 6.21661H14.5481C14.6507 6.21661 14.8663 6.40218 14.9177 6.49496C15.1949 6.96919 14.7534 7.47435 14.2401 7.37125V10.8455C15.1128 10.7011 15.3181 11.9383 14.4043 12.0001H0.533699C-0.30819 11.8352 -0.0720501 10.7115 0.769839 10.8455V7.37125C0.256492 7.47435 -0.184986 6.96919 0.092221 6.49496C0.143556 6.40218 0.369428 6.21661 0.461831 6.21661H2.32015V1.90734C2.30988 1.03105 3.42898 0.0207373 4.31193 0.0413558C6.39612 0.154758 8.62405 -0.102974 10.6877 0.0413558C11.5809 0.103211 12.6898 0.948572 12.6898 1.90734V6.21661ZM11.5399 6.21661V2.02074C11.5399 2.02074 11.468 1.79393 11.4475 1.7527C11.2832 1.41249 10.9546 1.22692 10.585 1.2063C8.56245 1.06197 6.36532 1.31971 4.3222 1.2063C3.97312 1.2063 3.47004 1.67022 3.47004 2.02074V6.21661H11.5399ZM3.86019 7.37125H1.91974V10.8455H3.86019V7.37125ZM6.91974 7.37125H5.01009V10.8455H6.91974V7.37125ZM9.98955 7.37125H8.0799V10.8455H9.98955V7.37125ZM13.0799 7.37125H11.1394V10.8455H13.0799V7.37125Z" fill="#94A3B8"/>
</g>
<defs>
<clipPath id="clip0_325_184">
<rect width="15" height="12" fill="white"/>
</clipPath>
</defs>
</svg>
