<svg xmlns="http://www.w3.org/2000/svg" width="80" height="13.6" xmlns:v="https://vecta.io/nano"><style><![CDATA[.B{clip-path:url(#A)}.C{fill:#003B95}.D{fill:#003B95}]]></style><defs><clipPath id="A"><path transform="translate(.1 -.2)" d="M0 0h80v13.6H0z"/></clipPath><clipPath id="B"><path transform="translate(.1)" d="M0 0h80v13.3H0z"/></clipPath><clipPath id="C"><path transform="translate(.1 -.5)" d="M0 0h80v13.6H0z"/></clipPath></defs><g class="B" transform="translate(-.1 .2)"><g class="B"><path d="M31.5,1.3a1.2,1.2,0,0,1,2.4,0,1.155,1.155,0,0,1-1.2,1.2,1.216,1.216,0,0,1-1.2-1.2" class="C"/><path d="M50.6,9.4a1.2,1.2,0,1,1,1.2,1.2,1.29,1.29,0,0,1-1.2-1.2" class="D"/><g class="C"><path d="M11.5 8.8a1.612 1.612 0 0 1-1.3-.6 1.872 1.872 0 0 1-.5-1.4 1.792 1.792 0 0 1 .4-1.4 1.974 1.974 0 0 1 1.4-.6 1.612 1.612 0 0 1 1.3.6 2.389 2.389 0 0 1 .5 1.4 1.792 1.792 0 0 1-.4 1.4 1.974 1.974 0 0 1-1.4.6zm0-5.8a3.477 3.477 0 0 0-2.7 1.1 3.8 3.8 0 0 0 2.7 6.5 3.477 3.477 0 0 0 2.7-1.1A3.8 3.8 0 0 0 11.5 3m17.6 4c-.1-.1-.2-.3-.3-.4l-.1-.1.1-.1a1.38 1.38 0 0 0 .3-.4l2-2.9h-2.4l-1.5 2.3a.764.764 0 0 1-.5.2h-.3V1.3c0-.9-.5-1-1.1-1h-1v10.1h2.1v-3h.2c.2 0 .4 0 .5.2l1.2 2.2a1.146 1.146 0 0 0 1.3.7h1.6L29.1 7m10.2-4a2.723 2.723 0 0 0-2.1.9l-.1.1v-.2a1.008 1.008 0 0 0-1.1-.7h-1v7.3h2.1V7.1a2.769 2.769 0 0 1 .1-.9A1.743 1.743 0 0 1 38.9 5c.7 0 .9.3.9 1.2v3.2a.829.829 0 0 0 .3.8 1.136 1.136 0 0 0 .8.3h1V5.8C41.9 4 41 3 39.3 3m-6.6.2h-1v5.7h0v1.7h2.1V4.3a1.135 1.135 0 0 0-.3-.8.67.67 0 0 0-.8-.3m-13 5.6a1.612 1.612 0 0 1-1.3-.6 1.792 1.792 0 0 1-.4-1.4 1.792 1.792 0 0 1 .4-1.4 1.708 1.708 0 0 1 2.6 0 2.389 2.389 0 0 1 .5 1.4 1.792 1.792 0 0 1-.4 1.4 1.974 1.974 0 0 1-1.4.6zm0-5.8A3.478 3.478 0 0 0 17 4.1a3.8 3.8 0 0 0 2.7 6.5 3.478 3.478 0 0 0 2.7-1.1A3.8 3.8 0 0 0 19.7 3"/></g></g><g transform="translate(0 .268)" clip-path="url(#B)"><g transform="translate(0 -.268)" clip-path="url(#C)"><path d="M64.5 8.8a1.612 1.612 0 0 1-1.3-.6 1.792 1.792 0 0 1-.4-1.4 1.792 1.792 0 0 1 .4-1.4 1.708 1.708 0 0 1 2.6 0 2.389 2.389 0 0 1 .5 1.4 1.792 1.792 0 0 1-.4 1.4 1.974 1.974 0 0 1-1.4.6zm0-5.8a3.478 3.478 0 0 0-2.7 1.1 3.8 3.8 0 0 0 2.7 6.5 3.477 3.477 0 0 0 2.7-1.1A3.8 3.8 0 0 0 64.5 3" class="D"/><path d="M46.3 8.5c-1.1 0-1.5-1-1.5-1.9 0-.4.1-1.8 1.4-1.8.7 0 1.5.2 1.5 1.8.1 1.6-.7 1.9-1.4 1.9zm2.5-5.3a1.086 1.086 0 0 0-.9.4l-.1.1-.1-.1a2.61 2.61 0 0 0-1.8-.6 3.289 3.289 0 0 0-3.3 3.6 3.434 3.434 0 0 0 3.3 3.7 2.353 2.353 0 0 0 1.6-.5l.2-.1v.3q0 1.5-1.8 1.5a3.194 3.194 0 0 1-1.4-.3.446.446 0 0 0-.5 0c-.2.1-.3.2-.3.4l-.2.4-.2.6.1.1a5.834 5.834 0 0 0 2.6.6c1.8 0 3.9-.9 3.9-3.5V3.1l-1.1.1" class="C"/></g></g><g class="B"><path d="M3.7,8.8H2v-2A.7.7,0,0,1,2.6,6H3.8a1.284,1.284,0,0,1,1,.4,1.689,1.689,0,0,1,.3,1,1.284,1.284,0,0,1-.4,1,1.159,1.159,0,0,1-1,.4ZM2,3.3V2.7A.632.632,0,0,1,2.7,2h.9a1.613,1.613,0,0,1,.9.3,1.4,1.4,0,0,1,.3.9,1.613,1.613,0,0,1-.3.9c-.3.2-.6.4-.9.3H2V3.3Zm3.9,2-.3-.2.3-.2A2.732,2.732,0,0,0,6.7,3C6.7,1.4,5.5.4,3.5.4H1.1a1.028,1.028,0,0,0-1,1.1v9H3.6c2.1,0,3.5-1.2,3.5-3A2.509,2.509,0,0,0,5.9,5.3" class="C"/><g class="D"><path d="M77.6 3a2.656 2.656 0 0 0-2.2 1.1l-.2.2-.1-.2A2.144 2.144 0 0 0 73.2 3a2.463 2.463 0 0 0-1.9.9l-.3.2-.1-.3a.887.887 0 0 0-1-.6H69v7.3h2V7.3a2.769 2.769 0 0 1 .1-.9c.2-.8.7-1.6 1.6-1.5.5.1.8.5.8 1.3v4.3h2V7.3a2.769 2.769 0 0 1 .1-.9 1.806 1.806 0 0 1 1.6-1.5c.6 0 .8.3.8 1.3v3.3a.959.959 0 0 0 1.1 1.1h.9V5.8C80.1 4 79.3 3 77.6 3M59.5 8a2.876 2.876 0 0 1-2 .9 2.051 2.051 0 0 1-2.1-2.1 2.7 2.7 0 0 1 .5-1.5 1.974 1.974 0 0 1 1.4-.6c.4 0 .8.1.9.4h0a.752.752 0 0 0 .7.5H60v-1c0-1.3-1.6-1.7-2.7-1.7a3.609 3.609 0 0 0-2.8 1 3.631 3.631 0 0 0-1.2 2.8 4.3 4.3 0 0 0 1.1 2.8 4.106 4.106 0 0 0 2.8 1.1 4.387 4.387 0 0 0 3.1-1.3l.1-.1-.9-1.4V8"/></g></g></g></svg>