<svg width="12" height="12" viewBox="0 0 12 12" fill="none" xmlns="http://www.w3.org/2000/svg">
<g clip-path="url(#clip0_235_1365)">
<path d="M4.58496 0.617919V1.75489" stroke="#94A3B8" stroke-linecap="round" stroke-linejoin="round"/>
<path d="M6.84656 0.617919V1.75489" stroke="#94A3B8" stroke-linecap="round" stroke-linejoin="round"/>
<path d="M7.98352 4.01648C8.13182 4.01648 8.28012 4.07827 8.37899 4.17714C8.49021 4.28836 8.53965 4.4243 8.53965 4.57261V9.10814C8.53965 9.7137 8.30484 10.2822 7.87229 10.7147C7.43975 11.1473 6.87126 11.3821 6.2657 11.3821H2.86715C2.26158 11.3821 1.6931 11.1473 1.26055 10.7147C0.840369 10.2945 0.593201 9.7137 0.593201 9.10814V4.57261C0.593201 4.4243 0.654993 4.276 0.75386 4.17714C0.865085 4.06591 1.00103 4.01648 1.14933 4.01648H9.08342C9.68898 4.01648 10.2575 4.25129 10.69 4.68383C11.1102 5.10402 11.3574 5.68486 11.3574 6.29042C11.3574 6.89598 11.1226 7.46447 10.69 7.89701C10.2698 8.3172 9.68898 8.56437 9.08342 8.56437H8.51493" stroke="#94A3B8" stroke-linecap="round" stroke-linejoin="round"/>
<path d="M2.32336 0.617919V1.75489" stroke="#94A3B8" stroke-linecap="round" stroke-linejoin="round"/>
</g>
<defs>
<clipPath id="clip0_235_1365">
<rect width="12" height="12" fill="white"/>
</clipPath>
</defs>
</svg>
