<svg width="24" height="26" viewBox="0 0 24 26" fill="none" xmlns="http://www.w3.org/2000/svg">
<g clip-path="url(#clip0_781_1019)">
<path d="M23.7889 6.55887C23.6353 3.97849 21.5329 1.96226 18.9937 1.96226H17.7601V0.981132C17.7601 0.441509 17.3281 0 16.8001 0C16.2721 0 15.8401 0.441509 15.8401 0.981132V1.96226H8.1601V0.981132C8.1601 0.441509 7.7281 0 7.2001 0C6.6721 0 6.2401 0.441509 6.2401 0.981132V1.96226H5.0065C2.4673 1.96226 0.360101 3.9834 0.211301 6.55887C-0.0718986 11.4057 -0.0670986 16.326 0.225701 21.1777C0.374501 23.6404 2.3089 25.6125 4.7185 25.7694C7.1329 25.9215 9.5665 26 12.0001 26C14.4337 26 16.8673 25.9215 19.2817 25.7694C21.6913 25.6174 23.6209 23.6453 23.7745 21.1777C24.0721 16.3309 24.0769 11.4106 23.7889 6.55887ZM21.8545 21.0551C21.7633 22.5317 20.6065 23.7189 19.1617 23.8072C14.4097 24.1113 9.5905 24.1113 4.8337 23.8072C3.3889 23.714 2.2273 22.5317 2.1409 21.0551C1.9153 17.3268 1.8673 13.5543 1.9873 9.81132H22.0081C22.1281 13.5592 22.0801 17.3268 21.8545 21.0551ZM7.2001 5.88679C7.7281 5.88679 8.1601 5.44528 8.1601 4.90566V3.92453H15.8401V4.90566C15.8401 5.44528 16.2721 5.88679 16.8001 5.88679C17.3281 5.88679 17.7601 5.44528 17.7601 4.90566V3.92453H18.9937C20.5153 3.92453 21.7825 5.13623 21.8737 6.6766C21.8977 7.06415 21.9073 7.4566 21.9265 7.84906H2.0737C2.0929 7.4566 2.1025 7.06906 2.1265 6.6766C2.2177 5.13132 3.4801 3.92453 5.0065 3.92453H6.2401V4.90566C6.2401 5.44528 6.6721 5.88679 7.2001 5.88679Z" fill="black"/>
<path d="M7.20001 15.6981C7.9953 15.6981 8.64001 15.0392 8.64001 14.2264C8.64001 13.4136 7.9953 12.7547 7.20001 12.7547C6.40472 12.7547 5.76001 13.4136 5.76001 14.2264C5.76001 15.0392 6.40472 15.6981 7.20001 15.6981Z" fill="black"/>
<path d="M12 15.6981C12.7953 15.6981 13.44 15.0392 13.44 14.2264C13.44 13.4136 12.7953 12.7547 12 12.7547C11.2047 12.7547 10.56 13.4136 10.56 14.2264C10.56 15.0392 11.2047 15.6981 12 15.6981Z" fill="black"/>
<path d="M7.20001 20.6038C7.9953 20.6038 8.64001 19.9449 8.64001 19.1321C8.64001 18.3193 7.9953 17.6604 7.20001 17.6604C6.40472 17.6604 5.76001 18.3193 5.76001 19.1321C5.76001 19.9449 6.40472 20.6038 7.20001 20.6038Z" fill="black"/>
<path d="M16.8 15.6981C17.5953 15.6981 18.24 15.0392 18.24 14.2264C18.24 13.4136 17.5953 12.7547 16.8 12.7547C16.0048 12.7547 15.36 13.4136 15.36 14.2264C15.36 15.0392 16.0048 15.6981 16.8 15.6981Z" fill="black"/>
<path d="M16.8 20.6038C17.5953 20.6038 18.24 19.9449 18.24 19.1321C18.24 18.3193 17.5953 17.6604 16.8 17.6604C16.0048 17.6604 15.36 18.3193 15.36 19.1321C15.36 19.9449 16.0048 20.6038 16.8 20.6038Z" fill="black"/>
<path d="M12 20.6038C12.7953 20.6038 13.44 19.9449 13.44 19.1321C13.44 18.3193 12.7953 17.6604 12 17.6604C11.2047 17.6604 10.56 18.3193 10.56 19.1321C10.56 19.9449 11.2047 20.6038 12 20.6038Z" fill="black"/>
</g>
<defs>
<clipPath id="clip0_781_1019">
<rect width="24" height="26" fill="white"/>
</clipPath>
</defs>
</svg>
