<svg xmlns="http://www.w3.org/2000/svg" width="18" height="18" fill="none">
  <path fill="#fff" d="M4.6 1.6 5 2v.3h1.7V2c.1-.2.2-.4.4-.4.2-.1.4-.2.7 0l.4.3v.4h1.7l.1-.4.5-.4.7.1c.2.1.2.3.3.5v.2H13v-.4l.6-.4.6.1c.2.1.3.3.3.4v.3h.2a59.5 59.5 0 0 1 .6 0c.6 0 1 0 1.4.4.3.2.5.6.5 1V4a177.7 177.7 0 0 1 0 .8V8.6a1611.7 1611.7 0 0 0 0 6.1v.2c0 .5-.2.9-.5 1.2-.4.4-.9.4-1.4.4h-1.2a656.1 656.1 0 0 1-1.8 0H12.1a2658 2658 0 0 1-9.5 0c-.6 0-1 0-1.4-.4-.3-.3-.5-.7-.5-1v-.2a7582.5 7582.5 0 0 1 0-.7v-4a7096.4 7096.4 0 0 1 0-6.4c0-.4.1-.8.5-1.1a1.4 1.4 0 0 1 1-.5 268.8 268.8 0 0 0 1.2 0c0-.3 0-.4.2-.5.3-.3.7-.3 1 0ZM2.3 3.8V6h13.5V3.8h-1.2v.6c0 .3 0 .5-.3.7-.2.1-.3.2-.6.1a.8.8 0 0 1-.5-.3v-.5a133.8 133.8 0 0 0 0-.6h-1.8v.5c0 .3 0 .6-.3.8H11c-.2.2-.4.2-.6.1a.8.8 0 0 1-.5-.3V3.8H8.1v.8c-.2.4-.2.4-.5.6h-.6a.7.7 0 0 1-.4-.4v-1H4.8v.6c0 .2 0 .5-.3.7a1 1 0 0 1-.6.1.8.8 0 0 1-.6-.4v-1H2.3ZM11 9.2l-.1.1a155.9 155.9 0 0 0-.5.5l-.1.1a189.5 189.5 0 0 0-2 2l-.1.1v.1H8l-.2-.1-.1-.1-.1-.1A116.3 116.3 0 0 0 6 10.5l-.6.3-.1.6c0 .4.5.7.8 1A141.1 141.1 0 0 0 8 14c.4 0 .6-.3.9-.6l.1-.1a110 110 0 0 0 3.7-4c0-.3 0-.5-.2-.6-.6-.5-1 0-1.5.5Z"/>
</svg>
