<svg width="13" height="12" viewBox="0 0 13 12" fill="none" xmlns="http://www.w3.org/2000/svg">
<g clip-path="url(#clip0_245_1485)">
<path d="M4.68866 6.20627L4.67963 5.83957H4.68866V6.20627Z" stroke="#94A3B8" stroke-width="0.69" stroke-linecap="round" stroke-linejoin="round"/>
<path d="M8.32037 6.20627L8.31134 5.83957H8.32037V6.20627Z" stroke="#94A3B8" stroke-width="0.69" stroke-linecap="round" stroke-linejoin="round"/>
<path d="M6.49548 8.97479C6.00764 8.97479 5.54691 8.85561 5.19458 8.64476L5.3843 8.33308C5.98054 8.69977 7.02849 8.69977 7.61571 8.33308L7.80542 8.64476C7.45309 8.85561 6.99236 8.97479 6.50452 8.97479H6.49548Z" stroke="#94A3B8" stroke-width="0.69" stroke-linecap="round" stroke-linejoin="round"/>
<path d="M6.49546 11.6791C5.21262 11.6791 3.95689 11.2299 2.95411 10.4141C1.97843 9.6165 1.29184 8.49809 1.01179 7.25134C0.813037 7.14133 0.64139 6.97632 0.514913 6.77464C0.379402 6.54545 0.298096 6.28877 0.298096 6.02292C0.298096 5.75707 0.370368 5.50038 0.514913 5.2712C0.632356 5.06952 0.804003 4.90451 1.00275 4.7945C1.27377 3.54775 1.96036 2.411 2.93604 1.60428C3.93882 0.77922 5.19455 0.320855 6.48642 0.311687C7.79636 0.311687 8.78107 1.05424 8.78107 2.03514C8.78107 3.01604 8.15772 3.75859 7.38983 3.75859C6.76648 3.75859 6.29671 3.4194 6.29671 2.96104H6.65807C6.65807 3.19939 6.98329 3.3919 7.38079 3.3919C7.94994 3.3919 8.41067 2.78686 8.41067 2.04431C8.41067 1.30176 7.56147 0.696714 6.47739 0.696714C5.26682 0.696714 4.0924 1.12758 3.15286 1.9068C2.21331 2.68602 1.5719 3.77693 1.32798 4.97784L1.30991 5.06952L1.2286 5.10619C1.05696 5.18869 0.903377 5.3262 0.804003 5.49121C0.704628 5.65623 0.650424 5.84874 0.650424 6.04125C0.650424 6.23377 0.704628 6.42628 0.804003 6.60046C0.903377 6.77464 1.05696 6.90298 1.2286 6.98548L1.30991 7.02215L1.32798 7.11383C1.58093 8.30558 2.23138 9.38732 3.17092 10.1482C4.10143 10.9091 5.27586 11.3308 6.47739 11.3308C7.67892 11.3308 8.85334 10.9091 9.78385 10.1482C10.7144 9.37815 11.3738 8.30558 11.6268 7.11383L11.6449 7.02215L11.7262 6.98548C11.8978 6.90298 12.0424 6.76547 12.1508 6.60046C12.2501 6.43545 12.3043 6.24293 12.3043 6.04125C12.3043 5.83957 12.2501 5.65623 12.1508 5.49121C12.0514 5.3262 11.8978 5.18869 11.7262 5.10619L11.6449 5.06952L11.6268 4.97784C11.4642 4.13445 11.1028 3.3369 10.5698 2.65852L10.8499 2.42933C11.3919 3.12605 11.7804 3.95111 11.9611 4.81283C12.1598 4.93201 12.3315 5.09702 12.4489 5.28953C12.5844 5.51872 12.6657 5.7754 12.6657 6.04125C12.6657 6.3071 12.5934 6.56379 12.4489 6.79297C12.3224 6.99465 12.1598 7.15966 11.952 7.26967C11.672 8.50726 10.9854 9.62567 10.0097 10.4324C9.01596 11.2483 7.75119 11.6975 6.46835 11.6975L6.49546 11.6791Z" stroke="#94A3B8" stroke-width="0.69" stroke-linecap="round" stroke-linejoin="round"/>
</g>
<defs>
<clipPath id="clip0_245_1485">
<rect width="13" height="12" fill="white"/>
</clipPath>
</defs>
</svg>
