<svg width="22" height="26" viewBox="0 0 22 26" fill="none" xmlns="http://www.w3.org/2000/svg">
<path d="M17.9039 26.0001H4.07279C-0.226303 25.4145 -0.357416 21.7951 0.28401 18.3252C0.809105 15.4852 2.37282 12.4997 5.74127 12.5461C6.42383 12.5557 7.5113 13.4921 8.15208 13.8253C10.0339 14.805 12.1035 14.7624 13.9609 13.756C14.5888 13.4158 15.5786 12.5461 16.2824 12.5461C20.9542 12.5461 22.2384 18.3697 21.9652 22.0145C21.8013 24.1983 20.102 25.8157 17.9039 26.0001ZM5.60566 14.0815C3.07659 14.1807 2.14144 16.6252 1.7751 18.7314C1.5945 19.7715 1.4049 21.5904 1.69283 22.5873C2.03668 23.7781 3.15436 24.3973 4.35301 24.4787H17.6231C20.4343 24.2225 20.5731 22.1823 20.3713 19.8834C20.1695 17.5845 19.2883 14.154 16.3421 14.0859C15.4475 14.5793 14.684 15.1769 13.7147 15.5444C10.7885 16.6538 8.1328 15.8794 5.71363 14.0961L5.60566 14.0815Z" fill="black"/>
<path d="M15.3151 10.7031C11.4569 14.5125 4.78809 11.9962 4.48216 6.63674C4.16016 1.01154 11.0031 -2.16852 15.1794 1.70961C17.7747 4.11977 17.8377 8.21279 15.3151 10.7024V10.7031ZM10.3353 1.54813C6.9958 1.84185 4.97705 5.55341 6.56583 8.48807C8.15075 11.4164 12.2474 11.8932 14.4602 9.37686C17.3075 6.14021 14.6646 1.16667 10.3353 1.54813Z" fill="black"/>
</svg>
