<svg width="11" height="12" viewBox="0 0 11 12" fill="none" xmlns="http://www.w3.org/2000/svg">
<g clip-path="url(#clip0_245_1472)">
<path d="M3.49154 3.47265C3.3602 3.47265 3.2398 3.41794 3.15224 3.33041C3.06468 3.24289 3.00995 3.1116 3.00995 2.99125C3.00995 2.8709 3.06468 2.7396 3.15224 2.65208L4.1592 1.64551C4.24676 1.55799 4.37811 1.50328 4.49851 1.50328C4.6189 1.50328 4.75025 1.55799 4.83781 1.64551C5.02388 1.83151 5.02388 2.13785 4.83781 2.33479L3.83084 3.34136C3.74328 3.42888 3.61194 3.48359 3.49154 3.48359V3.47265Z" fill="#94A3B8"/>
<path d="M8.01193 11C7.73829 11 7.53033 10.7812 7.53033 10.5186V9.51204C7.53033 9.23851 7.74924 9.03064 8.01193 9.03064C8.27461 9.03064 8.49352 9.24945 8.49352 9.51204V10.5186C8.49352 10.7921 8.27461 11 8.01193 11Z" fill="#94A3B8"/>
<path d="M0.481592 6.4814C0.218905 6.4814 0 6.26258 0 6C0 5.73742 0.218905 5.5186 0.481592 5.5186H10.5184C10.792 5.5186 11 5.73742 11 6C11 6.26258 10.7811 6.4814 10.5184 6.4814H0.481592Z" fill="#94A3B8"/>
<path d="M2.99899 11C2.7363 11 2.5174 10.7812 2.5174 10.5186V9.51204C2.5174 9.23851 2.7363 9.03064 2.99899 9.03064C3.26167 9.03064 3.48058 9.24945 3.48058 9.51204V10.5186C3.48058 10.7921 3.26167 11 2.99899 11Z" fill="#94A3B8"/>
<path d="M2.49552 9.99344C2.10149 9.99344 1.7184 9.84026 1.44477 9.5558C1.16019 9.27133 1.00696 8.89934 1.00696 8.50547V2.48796C1.02885 2.15974 1.12736 1.87527 1.30248 1.63457C1.4776 1.39387 1.7184 1.20788 2.00298 1.09847C2.1781 1.03282 2.36417 1 2.56119 1C2.67064 1 2.78009 1.01094 2.88955 1.03282C3.18507 1.09847 3.44775 1.2407 3.66666 1.44858L4.35621 2.13786C4.44377 2.22538 4.4985 2.35667 4.4985 2.47702C4.4985 2.59737 4.44377 2.72867 4.35621 2.81619C4.26865 2.90372 4.13731 2.95842 4.01691 2.95842C3.89651 2.95842 3.76517 2.90372 3.6776 2.81619L2.98805 2.12691C2.91144 2.05033 2.81293 1.99562 2.70348 1.9628C2.65969 1.9628 2.62686 1.95186 2.58308 1.95186C2.51741 1.95186 2.44079 1.9628 2.37512 1.98468C2.26566 2.02845 2.1781 2.09409 2.11243 2.18162C2.04676 2.26915 2.00298 2.37856 2.00298 2.48796V8.48359C2.00298 8.62582 2.0577 8.75711 2.15621 8.84464C2.25472 8.94311 2.38606 8.99781 2.51741 8.99781H8.53731C8.66865 8.99781 8.81094 8.94311 8.8985 8.84464C8.99701 8.74617 9.05173 8.61488 9.05173 8.48359V5.97812C9.05173 5.71554 9.27064 5.49672 9.53333 5.49672C9.79601 5.49672 10.0149 5.71554 10.0149 5.97812V8.48359C10.0149 8.87746 9.86168 9.24945 9.57711 9.53392C9.30348 9.80744 8.92039 9.97155 8.52636 9.97155H2.49552V9.99344Z" fill="#94A3B8"/>
</g>
<defs>
<clipPath id="clip0_245_1472">
<rect width="11" height="10" fill="white" transform="translate(0 1)"/>
</clipPath>
</defs>
</svg>
