<svg width="14" height="12" viewBox="0 0 14 12" fill="none" xmlns="http://www.w3.org/2000/svg">
<g clip-path="url(#clip0_245_1471)">
<path d="M11.2431 6.66279C11.0993 6.66279 10.9435 6.61628 10.8236 6.51163C8.69006 4.7907 5.35786 4.7907 3.2243 6.51163C2.94862 6.73256 2.5291 6.69768 2.30136 6.43023C2.07362 6.16279 2.10958 5.75582 2.38526 5.53489C4.98629 3.43024 9.06163 3.43024 11.6627 5.53489C11.9383 5.75582 11.9863 6.16279 11.7466 6.43023C11.6147 6.5814 11.4229 6.66279 11.2431 6.66279Z" fill="#94A3B8"/>
<path d="M13.3408 4.60465C13.1849 4.60465 13.0291 4.55814 12.9093 4.44186C11.2791 3.04651 9.18151 2.27907 7.00001 2.27907C4.8185 2.27907 2.7209 3.04651 1.09076 4.44186C0.815074 4.67442 0.40754 4.65116 0.155827 4.38372C-0.0958849 4.11628 -0.059926 3.7093 0.215759 3.47674C2.09761 1.88372 4.50685 1 7.00001 1C9.49316 1 11.9024 1.88372 13.7723 3.48837C14.0479 3.72093 14.0719 4.12791 13.8322 4.39535C13.7003 4.53488 13.5206 4.61628 13.3408 4.61628V4.60465Z" fill="#94A3B8"/>
<path d="M9.08564 8.73256C8.9538 8.73256 8.82195 8.69767 8.70208 8.61628C7.70722 7.93023 6.29284 7.93023 5.29797 8.61628C4.99832 8.82558 4.59078 8.75581 4.37503 8.46512C4.15927 8.17442 4.23119 7.77907 4.53085 7.56977C5.96921 6.56977 8.00688 6.56977 9.45722 7.56977C9.75688 7.77907 9.8288 8.17442 9.61304 8.46512C9.48119 8.63953 9.27743 8.73256 9.07366 8.73256H9.08564Z" fill="#94A3B8"/>
<path d="M7.00001 11C6.64042 11 6.34076 10.7093 6.34076 10.3605C6.34076 10.0116 6.62843 9.72093 7.00001 9.72093C7.3596 9.72093 7.65925 10.0116 7.65925 10.3605C7.65925 10.7093 7.3596 11 7.00001 11Z" fill="#94A3B8"/>
</g>
<defs>
<clipPath id="clip0_245_1471">
<rect width="14" height="10" fill="white" transform="translate(0 1)"/>
</clipPath>
</defs>
</svg>
