<svg width="11" height="12" viewBox="0 0 11 12" fill="none" xmlns="http://www.w3.org/2000/svg">
<g clip-path="url(#clip0_235_1415)">
<path d="M1.12752 12C0.506053 12 0 11.4747 0 10.8295V4.07373C0 3.42857 0.506053 2.90323 1.12752 2.90323H9.87248C10.4939 2.90323 11 3.42857 11 4.07373V10.8295C11 11.4747 10.4939 12 9.87248 12H1.12752ZM1.12752 3.85253C1.00323 3.85253 0.905569 3.95392 0.905569 4.08295V10.8387C0.905569 10.9677 1.00323 11.0691 1.12752 11.0691H9.87248C9.99677 11.0691 10.0944 10.9677 10.0944 10.8387V4.08295C10.0944 3.95392 9.99677 3.85253 9.87248 3.85253H1.12752Z" fill="#94A3B8"/>
<path d="M3.25829 8.62673C2.32608 8.62673 1.57144 7.84332 1.57144 6.87558C1.57144 5.90783 2.32608 5.12442 3.25829 5.12442C4.19049 5.12442 4.94513 5.90783 4.94513 6.87558C4.94513 7.84332 4.19049 8.62673 3.25829 8.62673ZM3.25829 6.06452C2.83214 6.06452 2.47701 6.42396 2.47701 6.87558C2.47701 7.32719 2.82326 7.68664 3.25829 7.68664C3.69331 7.68664 4.03956 7.32719 4.03956 6.87558C4.03956 6.42396 3.69331 6.06452 3.25829 6.06452Z" fill="#94A3B8"/>
<path d="M7.74171 8.62673C6.80951 8.62673 6.05487 7.84332 6.05487 6.87558C6.05487 5.90783 6.80951 5.12442 7.74171 5.12442C8.67392 5.12442 9.42856 5.90783 9.42856 6.87558C9.42856 7.84332 8.67392 8.62673 7.74171 8.62673ZM7.74171 6.06452C7.31556 6.06452 6.96044 6.42396 6.96044 6.87558C6.96044 7.32719 7.30669 7.68664 7.74171 7.68664C8.17674 7.68664 8.52299 7.32719 8.52299 6.87558C8.52299 6.42396 8.17674 6.06452 7.74171 6.06452Z" fill="#94A3B8"/>
<path d="M3.25827 7.31797C3.49363 7.31797 3.68442 7.1199 3.68442 6.87558C3.68442 6.63125 3.49363 6.43318 3.25827 6.43318C3.02292 6.43318 2.83212 6.63125 2.83212 6.87558C2.83212 7.1199 3.02292 7.31797 3.25827 7.31797Z" fill="#94A3B8"/>
<path d="M7.74173 7.31797C7.97709 7.31797 8.16788 7.1199 8.16788 6.87558C8.16788 6.63125 7.97709 6.43318 7.74173 6.43318C7.50638 6.43318 7.31558 6.63125 7.31558 6.87558C7.31558 7.1199 7.50638 7.31797 7.74173 7.31797Z" fill="#94A3B8"/>
<path d="M0.905569 3.85253C0.408394 3.85253 0 3.42857 0 2.91244V0.940092C0 0.423963 0.408394 0 0.905569 0H10.1033C10.6005 0 11.0089 0.423963 11.0089 0.940092V2.92166C11.0089 3.43779 10.6005 3.86175 10.1033 3.86175H0.905569V3.85253ZM0.905569 2.92166H10.0944V0.940092H0.905569V2.92166Z" fill="#94A3B8"/>
<path d="M3.25828 2.89401C2.74335 2.89401 2.32608 2.46083 2.32608 1.92627C2.32608 1.3917 2.74335 0.958525 3.25828 0.958525C3.77322 0.958525 4.19049 1.3917 4.19049 1.92627C4.19049 2.46083 3.77322 2.89401 3.25828 2.89401ZM3.25828 1.73272C3.15175 1.73272 3.07184 1.81567 3.07184 1.92627C3.07184 2.03687 3.15175 2.11982 3.25828 2.11982C3.36482 2.11982 3.44472 2.03687 3.44472 1.92627C3.44472 1.81567 3.36482 1.73272 3.25828 1.73272Z" fill="#94A3B8"/>
<path d="M5.50444 2.89401C4.98951 2.89401 4.57224 2.46083 4.57224 1.92627C4.57224 1.3917 4.98951 0.958525 5.50444 0.958525C6.01937 0.958525 6.43664 1.3917 6.43664 1.92627C6.43664 2.46083 6.01937 2.89401 5.50444 2.89401ZM5.50444 1.73272C5.3979 1.73272 5.318 1.81567 5.318 1.92627C5.318 2.03687 5.3979 2.11982 5.50444 2.11982C5.61098 2.11982 5.69088 2.03687 5.69088 1.92627C5.69088 1.81567 5.61098 1.73272 5.50444 1.73272Z" fill="#94A3B8"/>
<path d="M7.74171 2.89401C7.22678 2.89401 6.80951 2.46083 6.80951 1.92627C6.80951 1.3917 7.22678 0.958525 7.74171 0.958525C8.25664 0.958525 8.67392 1.3917 8.67392 1.92627C8.67392 2.46083 8.25664 2.89401 7.74171 2.89401ZM7.74171 1.73272C7.63518 1.73272 7.55527 1.81567 7.55527 1.92627C7.55527 2.03687 7.63518 2.11982 7.74171 2.11982C7.84825 2.11982 7.92815 2.03687 7.92815 1.92627C7.92815 1.81567 7.84825 1.73272 7.74171 1.73272Z" fill="#94A3B8"/>
</g>
<defs>
<clipPath id="clip0_235_1415">
<rect width="11" height="12" fill="white"/>
</clipPath>
</defs>
</svg>
