<svg width="11" height="11" viewBox="0 0 11 11" fill="none" xmlns="http://www.w3.org/2000/svg">
<path d="M3 4.5V10.5" stroke="white" stroke-linecap="round" stroke-linejoin="round"/>
<path d="M7 2.44L6.5 4.5H9.415C9.57025 4.5 9.72336 4.53614 9.86221 4.60557C10.0011 4.675 10.1219 4.7758 10.215 4.9C10.3081 5.0242 10.3711 5.16837 10.3989 5.32111C10.4266 5.47386 10.4185 5.63096 10.375 5.78L9.21 9.78C9.14942 9.98772 9.0231 10.1702 8.85 10.3C8.6769 10.4298 8.46637 10.5 8.25 10.5H1.5C1.23478 10.5 0.98043 10.3946 0.792893 10.2071C0.605357 10.0196 0.5 9.76522 0.5 9.5V5.5C0.5 5.23478 0.605357 4.98043 0.792893 4.79289C0.98043 4.60536 1.23478 4.5 1.5 4.5H2.88C3.06604 4.4999 3.24837 4.44791 3.40648 4.34986C3.56459 4.25181 3.69221 4.11161 3.775 3.945L5.5 0.5C5.73579 0.50292 5.96787 0.559085 6.1789 0.664298C6.38994 0.769512 6.57446 0.921053 6.7187 1.1076C6.86294 1.29415 6.96316 1.51088 7.01187 1.7416C7.06058 1.97232 7.05652 2.21107 7 2.44Z" stroke="white" stroke-linecap="round" stroke-linejoin="round"/>
</svg>
