<svg width="22" height="26" viewBox="0 0 22 26" fill="none" xmlns="http://www.w3.org/2000/svg">
<g clip-path="url(#clip0_781_1011)">
<path d="M11.7113 0C11.985 0.0806152 12.3063 0.0685547 12.5933 0.108545C18.575 0.943262 22.8462 6.68091 21.8573 12.6502C21.2668 16.2132 18.6132 19.5584 16.1079 22.034C15.0248 23.1036 13.4893 24.5788 12.2942 25.4833C11.9633 25.734 11.661 25.8934 11.2538 25.9924C11.0921 25.9771 10.9019 26.014 10.746 25.9924C10.396 25.9441 9.98553 25.6953 9.70553 25.4833C8.51046 24.5788 6.97494 23.1036 5.89187 22.034C3.38718 19.5597 0.733592 16.2138 0.143056 12.6509C-0.903109 6.33686 3.92617 0.392285 10.2884 0H11.7113ZM10.5322 1.53804C4.69743 1.83384 0.341598 7.42739 1.81794 13.16C2.77438 16.8733 6.0026 20.1157 8.76373 22.618C9.34727 23.1467 10.0651 23.8507 10.6715 24.3166C10.9496 24.5299 11.0482 24.5331 11.3289 24.3166C12.0925 23.7282 13.0209 22.8319 13.7445 22.1609C16.3325 19.7622 19.2788 16.6677 20.1818 13.16C21.7498 7.07065 16.7481 1.22319 10.5322 1.53804Z" fill="black"/>
<path d="M10.5329 5.75226C14.1086 5.43107 16.8093 8.93942 15.5238 12.3126C14.148 15.9231 9.21567 16.5287 7.01707 13.3472C4.92474 10.3194 6.87071 6.08107 10.5336 5.75162L10.5329 5.75226ZM10.6341 7.27442C6.44372 7.70162 6.90825 14.1235 11.1775 13.909C15.597 13.6868 15.1643 6.81232 10.6341 7.27442Z" fill="black"/>
</g>
<defs>
<clipPath id="clip0_781_1011">
<rect width="22" height="26" fill="white"/>
</clipPath>
</defs>
</svg>
