<svg width="220" height="42" viewBox="0 0 220 42" fill="none" xmlns="http://www.w3.org/2000/svg">
<g clip-path="url(#clip0_1012_382)">
<path d="M107.964 28.0596V8.02205H112.265V10.4C113.497 8.58822 116.917 8.02205 116.917 8.02205V12.5238C114.049 12.8811 112.651 14.4387 112.651 17.3299V28.052H107.964V28.0596Z" fill="black"/>
<path d="M154.562 28.0596V8.02205H158.863V10.4C160.096 8.58822 163.516 8.02205 163.516 8.02205V12.5238C160.647 12.8811 159.25 14.4387 159.25 17.3299V28.052H154.562V28.0596Z" fill="black"/>
<path d="M95.44 23.7768C97.4269 23.7768 98.8954 23.0797 99.8635 21.6857H104.991C104.34 23.6535 103.179 25.2035 101.525 26.3359C99.8635 27.4758 97.8486 28.0419 95.4755 28.0419C93.9612 28.0419 92.5816 27.8079 91.3239 27.3273C90.0662 26.8492 89.0016 26.1698 88.1123 25.2891C87.223 24.4084 86.537 23.3465 86.0543 22.111C85.5715 20.8654 85.3327 19.499 85.3327 17.9993C85.3327 16.4996 85.569 15.1332 86.0543 13.9052C86.537 12.6773 87.223 11.633 88.1123 10.7623C89.0016 9.89923 90.0738 9.21982 91.3239 8.74172C92.5816 8.26362 93.9612 8.02708 95.4755 8.02708C96.9898 8.02708 98.3695 8.27117 99.6094 8.74172C100.849 9.21982 101.914 9.89168 102.803 10.7623C103.692 11.6254 104.378 12.6773 104.861 13.9052C105.347 15.1332 105.583 16.4996 105.583 17.9993C105.583 18.2861 105.583 18.5478 105.565 18.7919C105.557 19.036 105.529 19.2876 105.504 19.5493H90.1907C90.4549 20.8905 91.0342 21.9348 91.9591 22.6771C92.8738 23.4169 94.0349 23.7843 95.4425 23.7843V23.7768H95.44ZM100.374 15.2842C99.9524 14.3254 99.3172 13.5957 98.4737 13.0723C97.6301 12.559 96.6087 12.2973 95.44 12.2973C94.2712 12.2973 93.2574 12.559 92.4215 13.0723C91.5856 13.5856 90.9631 14.3254 90.5388 15.2842H100.372H100.374Z" fill="black"/>
<path d="M151.757 8.04721H146.901V28.0596H151.757V8.04721Z" fill="black"/>
<path d="M174.792 23.7768C176.779 23.7768 178.25 23.0797 179.215 21.6857H184.342C183.692 23.6535 182.531 25.2035 180.877 26.3359C179.215 27.4758 177.2 28.0419 174.825 28.0419C173.313 28.0419 171.931 27.8079 170.673 27.3273C169.415 26.8492 168.351 26.1698 167.461 25.2891C166.572 24.4084 165.886 23.3465 165.403 22.111C164.918 20.8654 164.682 19.499 164.682 17.9993C164.682 16.4996 164.918 15.1332 165.403 13.9052C165.886 12.6773 166.572 11.633 167.461 10.7623C168.351 9.89923 169.423 9.21982 170.673 8.74172C171.931 8.26362 173.31 8.02708 174.825 8.02708C176.339 8.02708 177.719 8.27117 178.959 8.74172C180.198 9.21982 181.263 9.89168 182.152 10.7623C183.039 11.6254 183.728 12.6773 184.21 13.9052C184.693 15.1332 184.932 16.4996 184.932 17.9993C184.932 18.2861 184.932 18.5478 184.914 18.7919C184.896 19.036 184.879 19.2876 184.853 19.5493H169.54C169.804 20.8905 170.383 21.9348 171.308 22.6771C172.223 23.4169 173.384 23.7843 174.792 23.7843V23.7768ZM179.726 15.2842C179.304 14.3254 178.671 13.5957 177.828 13.0723C176.984 12.559 175.963 12.2973 174.792 12.2973C173.62 12.2973 172.612 12.559 171.776 13.0723C170.94 13.5856 170.317 14.3254 169.893 15.2842H179.726Z" fill="black"/>
<path d="M191.662 18.037C191.662 19.8488 192.155 21.2604 193.131 22.2695C194.107 23.2785 195.428 23.7843 197.072 23.7843C198.276 23.7843 199.298 23.5151 200.151 22.9741C200.995 22.4255 201.627 21.6681 202.049 20.6842H206.948C206.43 22.9564 205.304 24.7607 203.579 26.0742C201.856 27.3902 199.699 28.052 197.115 28.052C195.603 28.052 194.221 27.818 192.963 27.3374C191.706 26.8593 190.641 26.1799 189.752 25.2991C188.863 24.4184 188.176 23.3565 187.694 22.121C187.208 20.8754 186.972 19.5091 186.972 18.0093C186.972 16.5096 187.211 15.1433 187.694 13.9153C188.176 12.6873 188.863 11.643 189.752 10.7724C190.641 9.90929 191.713 9.22989 192.963 8.75178C194.221 8.27368 195.601 8.03715 197.115 8.03715C199.674 8.03715 201.821 8.69139 203.536 9.99737C205.258 11.3033 206.386 13.0723 206.905 15.2917H202.006C201.584 14.333 200.959 13.6033 200.106 13.0799C199.262 12.5665 198.241 12.3048 197.072 12.3048C195.428 12.3048 194.117 12.8106 193.131 13.8197C192.155 14.8287 191.662 16.2404 191.662 18.0446V18.037Z" fill="black"/>
<path d="M121.615 0.042778H129.329C131.705 0.042778 133.824 0.400096 135.689 1.11473C137.554 1.82937 139.119 2.81325 140.394 4.06638C141.67 5.31951 142.645 6.80163 143.306 8.50015C143.967 10.1987 144.292 12.0532 144.292 14.0486C144.292 16.0441 143.931 17.8986 143.21 19.6148C142.488 21.3309 141.469 22.8105 140.166 24.0485C138.865 25.2941 137.307 26.2704 135.496 26.9826C133.684 27.6972 131.712 28.0545 129.568 28.0545H121.625V0.042778H121.618H121.615ZM126.882 4.87664V23.2257H128.94C130.488 23.2257 131.888 22.9992 133.128 22.5387C134.368 22.0782 135.425 21.4315 136.286 20.5961C137.147 19.7683 137.826 18.7944 138.301 17.6797C138.776 16.565 139.022 15.3546 139.022 14.0562C139.022 12.7578 138.811 11.4694 138.397 10.3547C137.983 9.23995 137.35 8.27368 136.499 7.45336C135.646 6.63555 134.573 5.99892 133.28 5.55605C131.987 5.11066 130.465 4.88671 128.707 4.88671H126.885V4.87916L126.882 4.87664Z" fill="black"/>
<path d="M57.1527 8.02959L52.2185 21.5976L48.7452 11.9475L47.33 8.02959H45.0255L40.0989 21.5976L35.1646 8.02959H29.9484L37.5911 28.0419H42.6041L46.1587 18.6711L49.7209 28.0419H54.7262L62.3689 8.02959H57.1527Z" fill="black"/>
<path d="M69.1148 28.0419V17.7829C69.1148 16.2404 69.5645 15.0124 70.4512 14.1342C71.338 13.256 72.5271 12.8106 73.9779 12.8106C75.3143 12.8106 76.4043 13.2283 77.197 14.0562C77.9974 14.8841 78.4014 16.1372 78.4014 17.7829L78.4547 28.0419H83.1349V16.8846C83.1349 14.1418 82.3777 11.9551 80.8914 10.3874C79.405 8.81973 77.3647 8.02708 74.8214 8.02708C73.5815 8.02708 72.3848 8.28878 71.277 8.80966C70.3089 9.2626 69.5188 9.88162 68.9115 10.639L68.8582 8.02708H64.3889L64.4422 28.0394H69.1122L69.1148 28.0419Z" fill="black"/>
<path d="M219.21 8.04721H207.451V12.4533H219.21V8.04721Z" fill="black"/>
<path d="M220 23.5931C218.75 23.4547 217.828 23.0873 217.22 22.496C216.42 21.7209 216.016 20.415 216.016 18.5931V4.75586C216.016 2.1263 213.861 0 211.214 0V18.6284C211.214 21.6932 212.057 24.0284 213.757 25.6212C215.226 27.0052 217.312 27.7979 220.003 27.9815V23.5931H220Z" fill="black"/>
<path d="M14.1345 1.56264C6.33167 1.56264 0 7.82326 0 15.5584C0 23.2936 6.33167 29.5542 14.1345 29.5542C21.9372 29.5542 28.2689 23.2836 28.2689 15.5584C28.2689 7.83332 21.9449 1.56264 14.1345 1.56264ZM14.1345 24.8764C8.93598 24.8764 4.72334 20.7043 4.72334 15.5584C4.72334 10.4126 8.93598 6.23797 14.1345 6.23797C19.3329 6.23797 23.5456 10.41 23.5456 15.5559C23.5456 20.7018 19.3329 24.8739 14.1345 24.8739V24.8764Z" fill="black"/>
<path d="M14.1345 8.81721L16.8531 15.5408L14.1345 22.2896L11.4158 15.566L14.1345 8.81721ZM13.4129 14.9042C12.4194 16.0013 14.4419 17.335 15.039 15.8881C15.4353 14.9294 14.1167 14.1292 13.4129 14.9042Z" fill="black"/>
<path d="M15.7352 6.35372C15.2168 6.26565 14.6883 6.21532 14.1421 6.21532C13.5958 6.21532 13.0521 6.26817 12.5338 6.36379L14.1345 7.94907L15.7352 6.36379V6.35624V6.35372Z" fill="black"/>
<path d="M151.757 0.042778H146.901V4.84896H151.757V0.042778Z" fill="black"/>
<path d="M46.7888 41.9321L44.7739 37.5209H45.5743L47.2258 41.303H47.0861L48.7325 37.5209H49.5074L47.5053 41.9321H46.7888Z" fill="black"/>
<path d="M53.2424 41.9245L55.3716 37.5134H56.116L58.2376 41.9245H57.4296L56.863 40.6915L57.0028 40.7871H54.4671L54.6144 40.6739L54.0097 41.9245H53.2399H53.2424ZM54.7593 40.3468L54.6525 40.2159H56.8071L56.6979 40.3417L55.74 38.2532L54.7618 40.3468H54.7593Z" fill="black"/>
<path d="M65.0952 41.9874C64.6836 41.9874 64.3177 41.9321 63.9925 41.8239C63.6698 41.7157 63.3903 41.5596 63.1617 41.3583C62.9305 41.157 62.7551 40.9155 62.6332 40.6336C62.5112 40.3518 62.4528 40.0423 62.4528 39.7026C62.4528 39.3629 62.5138 39.0609 62.6383 38.7867C62.7602 38.5124 62.9381 38.2758 63.1718 38.0771C63.4056 37.8783 63.6825 37.7248 64.0078 37.6166C64.333 37.5109 64.6938 37.4555 65.0978 37.4555C65.5424 37.4555 65.9439 37.526 66.2996 37.6644C66.6553 37.8028 66.9449 38.0041 67.166 38.2658C67.3896 38.5275 67.5242 38.842 67.575 39.2069H66.8382C66.7823 38.9628 66.6781 38.7565 66.5206 38.5879C66.3631 38.4193 66.1649 38.2884 65.9235 38.2004C65.6821 38.1123 65.4103 38.067 65.1105 38.067C64.7166 38.067 64.3787 38.1374 64.0967 38.2758C63.8147 38.4142 63.5962 38.6055 63.4437 38.8521C63.2887 39.0987 63.2125 39.3805 63.2125 39.7051C63.2125 39.9618 63.2557 40.1908 63.3421 40.3946C63.4285 40.5984 63.553 40.7746 63.713 40.923C63.8731 41.0715 64.0713 41.1847 64.3076 41.2627C64.5413 41.3407 64.8081 41.3785 65.1054 41.3785C65.4179 41.3785 65.6898 41.3357 65.921 41.2527C66.1522 41.1696 66.3428 41.0463 66.4927 40.8878C66.6426 40.7293 66.7518 40.5405 66.8204 40.3216H67.5573C67.5014 40.5808 67.4099 40.8148 67.2778 41.0212C67.1457 41.2275 66.9754 41.4011 66.7671 41.5471C66.5587 41.693 66.3148 41.8012 66.0353 41.8767C65.7584 41.9522 65.4459 41.9899 65.0978 41.9899L65.0952 41.9874Z" fill="black"/>
<path d="M71.7826 41.9245L73.9118 37.5134H74.6562L76.7778 41.9245H75.9698L75.4032 40.6915L75.543 40.7871H73.0073L73.1546 40.6739L72.5499 41.9245H71.7801H71.7826ZM73.302 40.3468L73.1953 40.2159H75.3499L75.2406 40.3417L74.2827 38.2532L73.3045 40.3468H73.302Z" fill="black"/>
<path d="M82.0601 41.9245V38.1299H80.4975V37.5209H84.3519V38.1299H82.797V41.9245H82.0601Z" fill="black"/>
<path d="M89.1744 41.9245V37.5209H89.8985V41.9245H89.1744Z" fill="black"/>
<path d="M97.5285 41.9874C97.122 41.9874 96.7536 41.9346 96.4233 41.8264C96.0929 41.7207 95.8135 41.5647 95.5822 41.3634C95.351 41.1621 95.1732 40.923 95.0487 40.6437C94.9242 40.3644 94.8607 40.0524 94.8607 39.7026C94.8607 39.2497 94.9674 38.8546 95.1833 38.5174C95.3993 38.1802 95.7093 37.9185 96.1107 37.7348C96.5122 37.5511 96.9848 37.458 97.5285 37.458C97.9299 37.458 98.2958 37.5109 98.6287 37.614C98.959 37.7197 99.241 37.8707 99.4773 38.0695C99.711 38.2683 99.8914 38.5048 100.016 38.7816C100.14 39.0559 100.204 39.3629 100.204 39.7026C100.204 40.1631 100.095 40.5657 99.8762 40.9079C99.6577 41.2501 99.3503 41.5144 98.9488 41.7031C98.5499 41.8918 98.0748 41.9849 97.5285 41.9849V41.9874ZM97.5285 41.3785C97.9223 41.3785 98.2628 41.3105 98.5474 41.1747C98.8319 41.0388 99.053 40.845 99.2054 40.5934C99.3579 40.3417 99.4341 40.0473 99.4341 39.7051C99.4341 39.4585 99.3909 39.232 99.3045 39.0333C99.2181 38.8345 99.0911 38.6608 98.9259 38.5174C98.7608 38.374 98.5601 38.2658 98.3212 38.1878C98.0849 38.1098 97.8182 38.072 97.5285 38.072C97.1398 38.072 96.7993 38.14 96.5122 38.2733C96.2251 38.4067 96.004 38.5979 95.849 38.842C95.694 39.0886 95.6178 39.3755 95.6178 39.7076C95.6178 39.9593 95.661 40.1908 95.7499 40.3996C95.8389 40.6085 95.9659 40.7871 96.1336 40.9306C96.3013 41.0765 96.502 41.1872 96.7383 41.2652C96.9721 41.3432 97.2363 41.381 97.5285 41.381V41.3785Z" fill="black"/>
<path d="M105.151 41.9245V37.5209H105.837L108.817 40.9809L108.644 41.0237V37.5209H109.343V41.9245H108.733L105.715 38.4142L105.847 38.3715V41.9245H105.148H105.151Z" fill="black"/>
<path d="M120.286 41.9245V37.5209H121.925C122.261 37.5209 122.545 37.5511 122.784 37.6166C123.02 37.6795 123.213 37.7726 123.361 37.8934C123.508 38.0141 123.617 38.1626 123.689 38.3362C123.757 38.5099 123.793 38.7036 123.793 38.9175C123.793 39.149 123.747 39.3579 123.653 39.5466C123.559 39.7353 123.417 39.8938 123.221 40.0196C123.025 40.1455 122.779 40.2235 122.477 40.2512L122.306 40.3342C122.212 40.3417 122.118 40.3518 122.022 40.3594C121.925 40.3669 121.834 40.3719 121.747 40.3719H120.815V39.8259H121.747C122.078 39.8259 122.337 39.7881 122.525 39.7152C122.713 39.6422 122.848 39.539 122.926 39.4031C123.005 39.2698 123.043 39.1163 123.043 38.9452C123.043 38.7565 123.008 38.6004 122.939 38.4797C122.87 38.3589 122.751 38.2658 122.583 38.2003C122.416 38.1349 122.179 38.1022 121.874 38.1022H120.744L121.016 37.838V41.927H120.284L120.286 41.9245ZM123.368 41.9245L121.971 40.1203L122.715 39.9995L124.24 41.9245H123.368Z" fill="black"/>
<path d="M128.989 41.9245V37.5209H132.317V38.1123H129.713V39.4208H132.088V39.9819H129.713V41.3357H132.317V41.927H128.989V41.9245Z" fill="black"/>
<path d="M137.348 41.9245V37.5209H138.034L141.014 40.9809L140.841 41.0237V37.5209H141.54V41.9245H140.93L137.912 38.4142L138.044 38.3715V41.9245H137.345H137.348Z" fill="black"/>
<path d="M147.925 41.9245V38.1299H146.363V37.5209H150.217V38.1299H148.662V41.9245H147.925Z" fill="black"/>
<path d="M153.947 41.9245L156.076 37.5134H156.821L158.942 41.9245H158.134L157.57 40.6915L157.71 40.7871H155.174L155.321 40.6739L154.717 41.9245H153.947ZM155.464 40.3468L155.357 40.2159H157.509L157.4 40.3417L156.442 38.2532L155.464 40.3468Z" fill="black"/>
<path d="M163.62 41.9245V37.5209H164.351V41.4212L164.25 41.308H166.791V41.9245H163.62Z" fill="black"/>
<path d="M173.409 42C172.947 42 172.558 41.9446 172.241 41.8339C171.923 41.7232 171.684 41.5647 171.527 41.3583C171.369 41.152 171.288 40.9104 171.288 40.6286H172.012C172.012 40.7972 172.07 40.9406 172.187 41.0589C172.304 41.1772 172.467 41.2703 172.678 41.3332C172.886 41.3961 173.125 41.4288 173.392 41.4288C173.608 41.4288 173.798 41.4036 173.963 41.3533C174.128 41.303 174.258 41.225 174.355 41.1218C174.451 41.0161 174.497 40.8878 174.497 40.7318C174.497 40.5883 174.454 40.4726 174.367 40.3845C174.281 40.2965 174.164 40.2285 174.014 40.1757C173.864 40.1228 173.699 40.0876 173.516 40.0624C173.333 40.0373 173.143 40.0121 172.944 39.9844C172.749 39.9568 172.558 39.919 172.373 39.8712C172.19 39.8234 172.022 39.758 171.875 39.6724C171.727 39.5894 171.608 39.4761 171.522 39.3327C171.435 39.1893 171.392 39.0081 171.392 38.7867C171.392 38.5023 171.461 38.2582 171.6 38.0594C171.74 37.8607 171.943 37.7122 172.21 37.6115C172.477 37.5134 172.8 37.4631 173.176 37.4631C173.59 37.4631 173.946 37.5159 174.243 37.6241C174.54 37.7323 174.766 37.8833 174.926 38.0771C175.084 38.2708 175.165 38.5048 175.165 38.7791H174.446C174.446 38.6206 174.395 38.4847 174.294 38.3765C174.192 38.2683 174.047 38.1827 173.862 38.1223C173.676 38.062 173.45 38.0318 173.188 38.0318C172.965 38.0318 172.772 38.0569 172.614 38.1098C172.457 38.1626 172.332 38.2406 172.243 38.3488C172.154 38.457 172.109 38.5904 172.109 38.7489C172.109 38.8949 172.154 39.0106 172.246 39.0911C172.337 39.1742 172.457 39.2371 172.604 39.2824C172.751 39.3277 172.919 39.3629 173.102 39.3855C173.287 39.4082 173.478 39.4334 173.674 39.4585C173.872 39.4837 174.062 39.5189 174.245 39.5642C174.431 39.6095 174.596 39.6774 174.748 39.763C174.898 39.8486 175.015 39.9668 175.102 40.1153C175.185 40.2637 175.229 40.455 175.229 40.684C175.229 40.9784 175.152 41.2225 175.002 41.4162C174.853 41.6125 174.642 41.7559 174.37 41.8541C174.098 41.9497 173.778 42 173.409 42Z" fill="black"/>
</g>
<defs>
<clipPath id="clip0_1012_382">
<rect width="220" height="42" fill="white"/>
</clipPath>
</defs>
</svg>
