<svg width="360" height="69" viewBox="0 0 360 69" fill="none" xmlns="http://www.w3.org/2000/svg">
<g clip-path="url(#clip0_1012_875)">
<path d="M176.668 46.0978V13.1791H183.707V17.0857C185.723 14.1092 191.319 13.1791 191.319 13.1791V20.5747C186.625 21.1618 184.338 23.7207 184.338 28.4706V46.0854H176.668V46.0978Z" fill="white"/>
<path d="M252.919 46.0978V13.1791H259.958V17.0857C261.975 14.1092 267.571 13.1791 267.571 13.1791V20.5747C262.877 21.1618 260.59 23.7207 260.59 28.4706V46.0854H252.919V46.0978Z" fill="white"/>
<path d="M156.174 39.0618C159.426 39.0618 161.829 37.9167 163.413 35.6265H171.803C170.739 38.8593 168.839 41.4058 166.132 43.2661C163.413 45.1388 160.116 46.0689 156.233 46.0689C153.755 46.0689 151.497 45.6844 149.439 44.8949C147.381 44.1094 145.639 42.9932 144.184 41.5463C142.729 40.0995 141.606 38.3549 140.816 36.3251C140.026 34.2788 139.635 32.0341 139.635 29.5702C139.635 27.1064 140.022 24.8617 140.816 22.8443C141.606 20.8269 142.729 19.1113 144.184 17.681C145.639 16.263 147.393 15.1468 149.439 14.3614C151.497 13.5759 153.755 13.1873 156.233 13.1873C158.711 13.1873 160.968 13.5883 162.997 14.3614C165.026 15.1468 166.768 16.2506 168.223 17.681C169.679 19.0989 170.801 20.8269 171.591 22.8443C172.385 24.8617 172.772 27.1064 172.772 29.5702C172.772 30.0415 172.772 30.4715 172.743 30.8724C172.73 31.2734 172.685 31.6868 172.643 32.1168H147.585C148.017 34.3202 148.965 36.0358 150.478 37.2553C151.975 38.4707 153.875 39.0742 156.179 39.0742V39.0618H156.174ZM164.249 25.1097C163.558 23.5347 162.519 22.3358 161.139 21.4759C159.758 20.6326 158.087 20.2027 156.174 20.2027C154.262 20.2027 152.603 20.6326 151.235 21.4759C149.867 22.3193 148.849 23.5347 148.154 25.1097H164.244H164.249Z" fill="white"/>
<path d="M248.329 13.2204H240.384V46.0978H248.329V13.2204Z" fill="white"/>
<path d="M286.023 39.0618C289.274 39.0618 291.681 37.9167 293.261 35.6265H301.651C300.587 38.8593 298.687 41.4058 295.98 43.2661C293.261 45.1388 289.964 46.0689 286.077 46.0689C283.603 46.0689 281.341 45.6844 279.283 44.8949C277.225 44.1094 275.483 42.9932 274.028 41.5463C272.573 40.0995 271.45 38.3549 270.66 36.3251C269.866 34.2788 269.479 32.0341 269.479 29.5702C269.479 27.1064 269.866 24.8617 270.66 22.8443C271.45 20.8269 272.573 19.1113 274.028 17.681C275.483 16.263 277.237 15.1468 279.283 14.3614C281.341 13.5759 283.599 13.1873 286.077 13.1873C288.555 13.1873 290.812 13.5883 292.841 14.3614C294.87 15.1468 296.612 16.2506 298.067 17.681C299.518 19.0989 300.645 20.8269 301.435 22.8443C302.225 24.8617 302.616 27.1064 302.616 29.5702C302.616 30.0415 302.616 30.4715 302.587 30.8724C302.558 31.2734 302.529 31.6868 302.487 32.1168H277.429C277.861 34.3202 278.809 36.0358 280.322 37.2553C281.819 38.4707 283.719 39.0742 286.023 39.0742V39.0618ZM294.097 25.1097C293.407 23.5347 292.371 22.3358 290.991 21.4759C289.611 20.6326 287.939 20.2027 286.023 20.2027C284.106 20.2027 282.455 20.6326 281.087 21.4759C279.72 22.3193 278.701 23.5347 278.007 25.1097H294.097Z" fill="white"/>
<path d="M313.63 29.6323C313.63 32.6087 314.436 34.9279 316.033 36.5856C317.629 38.2433 319.791 39.0742 322.481 39.0742C324.452 39.0742 326.123 38.6319 327.52 37.7431C328.901 36.8419 329.936 35.5976 330.626 33.9812H338.642C337.794 37.7142 335.952 40.6782 333.129 42.8361C330.31 44.9982 326.78 46.0854 322.552 46.0854C320.078 46.0854 317.816 45.701 315.758 44.9114C313.7 44.1259 311.958 43.0098 310.503 41.5629C309.048 40.116 307.925 38.3715 307.135 36.3417C306.341 34.2954 305.954 32.0506 305.954 29.5868C305.954 27.1229 306.345 24.8782 307.135 22.8608C307.925 20.8435 309.048 19.1279 310.503 17.6975C311.958 16.2796 313.713 15.1634 315.758 14.3779C317.816 13.5925 320.074 13.2039 322.552 13.2039C326.739 13.2039 330.252 14.2787 333.058 16.4242C335.877 18.5698 337.723 21.476 338.571 25.1221H330.555C329.865 23.5471 328.842 22.3482 327.445 21.4884C326.065 20.645 324.394 20.2151 322.481 20.2151C319.791 20.2151 317.646 21.046 316.033 22.7037C314.436 24.3615 313.63 26.6806 313.63 29.6447V29.6323Z" fill="white"/>
<path d="M199.007 0.070282H211.629C215.517 0.070282 218.984 0.657305 222.036 1.83135C225.088 3.0054 227.649 4.62178 229.736 6.68049C231.823 8.73921 233.42 11.1741 234.501 13.9645C235.582 16.755 236.114 19.8017 236.114 23.0799C236.114 26.3582 235.524 29.4049 234.343 32.2243C233.162 35.0436 231.495 37.4744 229.362 39.5083C227.233 41.5546 224.685 43.1586 221.72 44.3285C218.756 45.5026 215.529 46.0896 212.02 46.0896H199.023V0.070282H199.011H199.007ZM207.626 8.01163V38.1565H210.993C213.525 38.1565 215.816 37.7844 217.845 37.0279C219.874 36.2714 221.604 35.209 223.013 33.8365C224.423 32.4764 225.533 30.8766 226.31 29.0452C227.088 27.2139 227.491 25.2255 227.491 23.0923C227.491 20.9592 227.146 18.8426 226.468 17.0113C225.79 15.1799 224.755 13.5925 223.362 12.2448C221.965 10.9013 220.211 9.85538 218.095 9.1278C215.978 8.39609 213.488 8.02816 210.611 8.02816H207.63V8.01576L207.626 8.01163Z" fill="white"/>
<path d="M93.5226 13.1915L85.4484 35.4818L79.7648 19.628L77.449 13.1915H73.678L65.6163 35.4818L57.5421 13.1915H49.0064L61.5127 46.0689H69.7157L75.5323 30.674L81.3614 46.0689H89.552L102.058 13.1915H93.5226Z" fill="white"/>
<path d="M113.097 46.0689V29.2147C113.097 26.6806 113.833 24.6632 115.284 23.2205C116.735 21.7777 118.681 21.046 121.055 21.046C123.242 21.046 125.025 21.7323 126.322 23.0923C127.632 24.4524 128.293 26.5111 128.293 29.2147L128.38 46.0689H136.039V27.7389C136.039 23.2329 134.8 19.6405 132.368 17.065C129.935 14.4895 126.597 13.1873 122.435 13.1873C120.406 13.1873 118.448 13.6173 116.635 14.473C115.051 15.2171 113.758 16.2341 112.764 17.4784L112.677 13.1873H105.364L105.451 46.0648H113.093L113.097 46.0689Z" fill="white"/>
<path d="M358.707 13.2204H339.465V20.459H358.707V13.2204Z" fill="white"/>
<path d="M360 38.76C357.954 38.5327 356.445 37.9291 355.452 36.9576C354.142 35.6844 353.481 33.5389 353.481 30.5459V7.81319C353.481 3.4932 349.955 0 345.623 0V30.6037C345.623 35.6389 347.003 39.4752 349.785 42.092C352.188 44.3657 355.601 45.6679 360.004 45.9697V38.76H360Z" fill="white"/>
<path d="M23.1291 2.5672C10.3609 2.5672 0 12.8525 0 25.5603C0 38.2681 10.3609 48.5534 23.1291 48.5534C35.8973 48.5534 46.2582 38.2516 46.2582 25.5603C46.2582 12.869 35.9098 2.5672 23.1291 2.5672ZM23.1291 40.8684C14.6225 40.8684 7.7291 34.0143 7.7291 25.5603C7.7291 17.1064 14.6225 10.2481 23.1291 10.2481C31.6357 10.2481 38.5291 17.1022 38.5291 25.5562C38.5291 34.0101 31.6357 40.8642 23.1291 40.8642V40.8684Z" fill="white"/>
<path d="M23.1291 14.4854L27.5778 25.5314L23.1291 36.6187L18.6804 25.5727L23.1291 14.4854ZM21.9483 24.4855C20.3227 26.2879 23.6322 28.4789 24.6093 26.1019C25.2579 24.5268 23.1 23.2122 21.9483 24.4855Z" fill="white"/>
<path d="M25.7484 10.4383C24.9003 10.2936 24.0355 10.2109 23.1416 10.2109C22.2477 10.2109 21.3579 10.2977 20.5098 10.4548L23.1291 13.0592L25.7484 10.4548V10.4424V10.4383Z" fill="white"/>
<path d="M248.329 0.070282H240.384V7.96615H248.329V0.070282Z" fill="white"/>
<path d="M76.5634 68.8884L73.2664 61.6415H74.5761L77.2786 67.8549H77.0499L79.7441 61.6415H81.0122L77.7359 68.8884H76.5634Z" fill="white"/>
<path d="M87.1239 68.876L90.608 61.6292H91.8262L95.2979 68.876H93.9757L93.0486 66.8503L93.2773 67.0074H89.1279L89.3691 66.8214L88.3795 68.876H87.1198H87.1239ZM89.606 66.284L89.4314 66.069H92.9571L92.7783 66.2757L91.2109 62.8445L89.6102 66.284H89.606Z" fill="white"/>
<path d="M106.519 68.9793C105.846 68.9793 105.247 68.8884 104.715 68.7106C104.187 68.5329 103.73 68.2766 103.355 67.9458C102.977 67.6151 102.69 67.2183 102.491 66.7552C102.291 66.2922 102.195 65.7838 102.195 65.2257C102.195 64.6676 102.295 64.1715 102.499 63.7209C102.699 63.2703 102.99 62.8817 103.372 62.5551C103.755 62.2286 104.208 61.9764 104.74 61.7986C105.272 61.625 105.863 61.5341 106.524 61.5341C107.251 61.5341 107.908 61.6498 108.49 61.8772C109.072 62.1045 109.546 62.4353 109.908 62.8652C110.274 63.2951 110.494 63.8119 110.577 64.4113H109.372C109.28 64.0103 109.11 63.6713 108.852 63.3943C108.594 63.1174 108.27 62.9024 107.875 62.7577C107.48 62.613 107.035 62.5386 106.544 62.5386C105.9 62.5386 105.347 62.6544 104.886 62.8817C104.424 63.1091 104.066 63.4233 103.817 63.8284C103.563 64.2335 103.439 64.6965 103.439 65.2298C103.439 65.6515 103.509 66.0277 103.651 66.3625C103.792 66.6974 103.996 66.9868 104.258 67.2307C104.52 67.4746 104.844 67.6606 105.231 67.7887C105.613 67.9169 106.05 67.9789 106.536 67.9789C107.047 67.9789 107.492 67.9086 107.871 67.7722C108.249 67.6358 108.561 67.4332 108.806 67.1728C109.051 66.9123 109.23 66.6023 109.343 66.2426H110.548C110.457 66.6684 110.307 67.0529 110.091 67.3919C109.875 67.7309 109.596 68.0161 109.255 68.2559C108.914 68.4957 108.515 68.6734 108.058 68.7974C107.605 68.9214 107.093 68.9835 106.524 68.9835L106.519 68.9793Z" fill="white"/>
<path d="M117.462 68.876L120.947 61.6292H122.165L125.636 68.876H124.314L123.387 66.8503L123.616 67.0074H119.466L119.708 66.8214L118.718 68.876H117.458H117.462ZM119.949 66.284L119.774 66.069H123.3L123.121 66.2757L121.554 62.8445L119.953 66.284H119.949Z" fill="white"/>
<path d="M134.28 68.876V62.642H131.723V61.6415H138.03V62.642H135.486V68.876H134.28Z" fill="white"/>
<path d="M145.922 68.876V61.6415H147.107V68.876H145.922Z" fill="white"/>
<path d="M159.592 68.9793C158.927 68.9793 158.324 68.8925 157.784 68.7147C157.243 68.5411 156.786 68.2848 156.407 67.9541C156.029 67.6234 155.738 67.2306 155.534 66.7718C155.331 66.3129 155.227 65.8003 155.227 65.2257C155.227 64.4816 155.401 63.8325 155.755 63.2786C156.108 62.7246 156.615 62.2947 157.272 61.9929C157.929 61.6911 158.702 61.5382 159.592 61.5382C160.249 61.5382 160.848 61.625 161.392 61.7945C161.933 61.9681 162.394 62.2161 162.781 62.5427C163.164 62.8693 163.459 63.2579 163.662 63.7126C163.866 64.1632 163.97 64.6676 163.97 65.2257C163.97 65.9822 163.791 66.6436 163.434 67.2058C163.076 67.7681 162.573 68.2021 161.916 68.5122C161.263 68.8222 160.486 68.9752 159.592 68.9752V68.9793ZM159.592 67.9789C160.237 67.9789 160.794 67.8673 161.259 67.644C161.725 67.4208 162.087 67.1025 162.336 66.6891C162.586 66.2757 162.71 65.792 162.71 65.2298C162.71 64.8247 162.64 64.4526 162.498 64.126C162.357 63.7995 162.149 63.5142 161.879 63.2786C161.609 63.0429 161.28 62.8652 160.889 62.737C160.503 62.6089 160.066 62.5469 159.592 62.5469C158.956 62.5469 158.399 62.6585 157.929 62.8776C157.459 63.0967 157.098 63.4109 156.844 63.8119C156.59 64.217 156.466 64.6883 156.466 65.2339C156.466 65.6473 156.536 66.0277 156.682 66.3708C156.827 66.7139 157.035 67.0074 157.31 67.243C157.584 67.4828 157.912 67.6647 158.299 67.7929C158.682 67.921 159.114 67.983 159.592 67.983V67.9789Z" fill="white"/>
<path d="M172.065 68.876V61.6415H173.188L178.065 67.3257L177.782 67.396V61.6415H178.925V68.876H177.927L172.988 63.1091L173.204 63.0388V68.876H172.061H172.065Z" fill="white"/>
<path d="M196.832 68.876V61.6415H199.514C200.063 61.6415 200.528 61.6912 200.919 61.7986C201.306 61.902 201.622 62.0549 201.863 62.2534C202.104 62.4518 202.283 62.6957 202.399 62.9809C202.512 63.2662 202.57 63.5845 202.57 63.9359C202.57 64.3162 202.495 64.6593 202.341 64.9694C202.187 65.2794 201.955 65.5399 201.634 65.7466C201.314 65.9533 200.911 66.0814 200.416 66.1269L200.138 66.2633C199.984 66.2757 199.83 66.2922 199.672 66.3047C199.514 66.3171 199.364 66.3253 199.223 66.3253H197.697V65.4283H199.223C199.763 65.4283 200.188 65.3662 200.495 65.2464C200.803 65.1265 201.023 64.957 201.152 64.7337C201.281 64.5146 201.343 64.2625 201.343 63.9814C201.343 63.6713 201.285 63.415 201.173 63.2166C201.061 63.0181 200.865 62.8652 200.591 62.7577C200.316 62.6502 199.93 62.5965 199.431 62.5965H197.581L198.026 62.1624V68.8801H196.828L196.832 68.876ZM201.876 68.876L199.589 65.9119L200.807 65.7135L203.302 68.876H201.876Z" fill="white"/>
<path d="M211.072 68.876V61.6415H216.519V62.613H212.257V64.7627H216.145V65.6846H212.257V67.9086H216.519V68.8801H211.072V68.876Z" fill="white"/>
<path d="M224.751 68.876V61.6415H225.874L230.751 67.3257L230.468 67.396V61.6415H231.611V68.876H230.613L225.674 63.1091L225.89 63.0388V68.876H224.747H224.751Z" fill="white"/>
<path d="M242.059 68.876V62.642H239.502V61.6415H245.81V62.642H243.265V68.876H242.059Z" fill="white"/>
<path d="M251.913 68.876L255.397 61.6292H256.615L260.087 68.876H258.765L257.842 66.8503L258.071 67.0074H253.921L254.162 66.8214L253.173 68.876H251.913ZM254.395 66.284L254.221 66.069H257.742L257.563 66.2757L255.996 62.8445L254.395 66.284Z" fill="white"/>
<path d="M267.741 68.876V61.6415H268.939V68.0492L268.772 67.8632H272.93V68.876H267.741Z" fill="white"/>
<path d="M283.761 69C283.004 69 282.368 68.909 281.848 68.7271C281.329 68.5452 280.938 68.2848 280.68 67.9458C280.422 67.6068 280.289 67.21 280.289 66.747H281.474C281.474 67.024 281.57 67.2596 281.761 67.4539C281.952 67.6482 282.218 67.8011 282.563 67.9045C282.904 68.0078 283.295 68.0616 283.732 68.0616C284.085 68.0616 284.397 68.0202 284.667 67.9376C284.937 67.8549 285.149 67.7267 285.307 67.5572C285.465 67.3836 285.54 67.1728 285.54 66.9165C285.54 66.6808 285.47 66.4907 285.328 66.346C285.187 66.2013 284.996 66.0897 284.75 66.0029C284.505 65.916 284.235 65.8582 283.935 65.8168C283.636 65.7755 283.324 65.7341 283 65.6887C282.68 65.6432 282.368 65.5812 282.064 65.5026C281.765 65.4241 281.491 65.3166 281.25 65.1761C281.008 65.0396 280.813 64.8536 280.672 64.618C280.53 64.3823 280.46 64.0847 280.46 63.7209C280.46 63.2538 280.572 62.8528 280.801 62.5262C281.029 62.1996 281.362 61.9557 281.798 61.7904C282.235 61.6291 282.763 61.5464 283.378 61.5464C284.056 61.5464 284.638 61.6333 285.125 61.811C285.611 61.9888 285.981 62.2368 286.243 62.5551C286.501 62.8735 286.634 63.2579 286.634 63.7085H285.457C285.457 63.4481 285.374 63.2248 285.208 63.0471C285.041 62.8693 284.804 62.7288 284.501 62.6295C284.197 62.5303 283.827 62.4807 283.399 62.4807C283.033 62.4807 282.717 62.5221 282.459 62.6089C282.202 62.6957 281.998 62.8238 281.852 63.0016C281.707 63.1794 281.632 63.3985 281.632 63.6589C281.632 63.8987 281.707 64.0888 281.857 64.2211C282.006 64.3575 282.202 64.4609 282.443 64.5353C282.684 64.6097 282.958 64.6676 283.258 64.7048C283.561 64.742 283.873 64.7833 284.193 64.8247C284.518 64.866 284.829 64.9239 285.129 64.9983C285.432 65.0727 285.702 65.1843 285.952 65.3249C286.197 65.4654 286.388 65.6597 286.53 65.9036C286.667 66.1475 286.738 66.4617 286.738 66.8379C286.738 67.3216 286.613 67.7226 286.368 68.0409C286.122 68.3634 285.777 68.599 285.332 68.7602C284.888 68.9173 284.364 69 283.761 69Z" fill="white"/>
</g>
<defs>
<clipPath id="clip0_1012_875">
<rect width="360" height="69" fill="white"/>
</clipPath>
</defs>
</svg>
