<svg width="12" height="12" viewBox="0 0 12 12" fill="none" xmlns="http://www.w3.org/2000/svg">
<g clip-path="url(#clip0_245_1450)">
<path d="M5.99991 0C2.68631 0 0 2.68631 0 5.99991C0 9.31351 2.68631 11.9998 5.99991 11.9998C9.31351 11.9998 11.9998 9.31351 11.9998 5.99991C11.9998 2.68631 9.31369 0 5.99991 0ZM5.99991 10.7999C3.34888 10.7999 1.19987 8.65094 1.19987 5.99991C1.19987 3.34888 3.34906 1.20005 5.99991 1.20005C8.65076 1.20005 10.7999 3.34906 10.7999 6.00009C10.7999 8.65112 8.65094 10.8001 5.99991 10.8001V10.7999Z" fill="#94A3B8"/>
<path d="M6.70803 3.12605H4.90804C4.57666 3.12605 4.30811 3.3946 4.30811 3.72598V8.52602C4.30811 8.8574 4.57666 9.12596 4.90804 9.12596C5.23942 9.12596 5.50798 8.8574 5.50798 8.52602V7.32596H6.70803C7.70217 7.32596 8.50802 6.52011 8.50802 5.52597V4.92604C8.50802 3.9319 7.70217 3.12605 6.70803 3.12605ZM7.30797 5.52597C7.30797 5.85735 7.03941 6.12591 6.70803 6.12591H5.50798V4.32592H6.70803C7.03941 4.32592 7.30797 4.59448 7.30797 4.92586V5.52579V5.52597Z" fill="#94A3B8"/>
</g>
<defs>
<clipPath id="clip0_245_1450">
<rect width="12" height="12" fill="white"/>
</clipPath>
</defs>
</svg>
