<svg width="12" height="12" viewBox="0 0 12 12" fill="none" xmlns="http://www.w3.org/2000/svg">
<g clip-path="url(#clip0_255_1672)">
<path d="M5.46102 3.2718C4.55593 3.2718 3.82373 2.54022 3.82373 1.6359C3.82373 0.731583 4.55593 0 5.46102 0C6.3661 0 7.09831 0.731583 7.09831 1.6359C7.09831 2.54022 6.3661 3.2718 5.46102 3.2718ZM5.46102 1.09738C5.1661 1.09738 4.92204 1.34124 4.92204 1.6359C4.92204 1.93057 5.1661 2.17443 5.46102 2.17443C5.75593 2.17443 6 1.93057 6 1.6359C6 1.34124 5.75593 1.09738 5.46102 1.09738Z" fill="#94A3B8"/>
<path d="M9.27459 5.44623C8.3695 5.44623 7.6373 4.71465 7.6373 3.81033C7.6373 2.90601 8.3695 2.17443 9.27459 2.17443C10.1797 2.17443 10.9119 2.90601 10.9119 3.81033C10.9119 4.71465 10.1797 5.44623 9.27459 5.44623ZM9.27459 3.2718C8.97967 3.2718 8.7356 3.51566 8.7356 3.81033C8.7356 4.105 8.97967 4.34886 9.27459 4.34886C9.5695 4.34886 9.81357 4.105 9.81357 3.81033C9.81357 3.51566 9.5695 3.2718 9.27459 3.2718Z" fill="#94A3B8"/>
<path d="M10.3627 9.81541C9.45764 9.81541 8.72543 9.08383 8.72543 8.17951C8.72543 7.27519 9.45764 6.54361 10.3627 6.54361C11.2678 6.54361 12 7.27519 12 8.17951C12 9.08383 11.2678 9.81541 10.3627 9.81541ZM10.3627 7.64098C10.0678 7.64098 9.82374 7.88484 9.82374 8.17951C9.82374 8.47417 10.0678 8.71803 10.3627 8.71803C10.6576 8.71803 10.9017 8.47417 10.9017 8.17951C10.9017 7.88484 10.6576 7.64098 10.3627 7.64098Z" fill="#94A3B8"/>
<path d="M5.18643 11.9898C4.7288 11.9898 4.27118 11.8577 3.88474 11.6139C3.38643 11.3091 3.02033 10.8315 2.84745 10.2625C2.67457 9.68332 2.31863 9.32769 1.7288 9.14479C1.16948 8.97206 0.691516 8.60627 0.376261 8.10838C0.0711767 7.63082 -0.0610267 7.04149 0.0203293 6.442C0.101685 5.87299 0.386431 5.34462 0.844058 4.95851C1.30169 4.5724 1.87118 4.36918 2.44067 4.36918H4.34236C4.78982 4.36918 5.20677 4.45047 5.58304 4.6232C5.97965 4.78577 6.33558 5.01947 6.65084 5.3243C6.97626 5.65961 7.19999 6.00508 7.35253 6.38103C7.52541 6.78747 7.60677 7.21423 7.60677 7.64098V9.54107C7.60677 10.1304 7.39321 10.6994 7.01694 11.1363C6.6305 11.5834 6.10169 11.8781 5.52202 11.9594C5.41016 11.9797 5.28813 11.9898 5.17626 11.9898H5.18643ZM2.46101 5.44623C2.12541 5.44623 1.81016 5.56816 1.56609 5.78154C1.31185 6.00508 1.15931 6.29975 1.10846 6.61473C1.05762 6.95004 1.1288 7.27519 1.30169 7.53937C1.4644 7.80356 1.7288 8.00677 2.04406 8.11854C2.96948 8.40305 3.57965 9.02286 3.87457 9.95766C3.97626 10.2727 4.18982 10.5368 4.45423 10.6994C4.66779 10.8315 4.91186 10.9026 5.17626 10.9026C5.23728 10.9026 5.31863 10.9026 5.38982 10.8925C5.70508 10.8417 5.99999 10.6791 6.22372 10.4352C6.43728 10.1812 6.55931 9.85605 6.55931 9.54107V7.64098C6.55931 7.33616 6.50846 7.05165 6.3966 6.80779C6.28474 6.55377 6.13219 6.32007 5.9288 6.09653C5.71524 5.88315 5.48135 5.73074 5.21694 5.61897C4.9627 5.5072 4.68813 5.45639 4.38304 5.45639H2.48135L2.46101 5.44623Z" fill="#94A3B8"/>
</g>
<defs>
<clipPath id="clip0_255_1672">
<rect width="12" height="12" fill="white"/>
</clipPath>
</defs>
</svg>
