<svg width="12" height="12" viewBox="0 0 12 12" fill="none" xmlns="http://www.w3.org/2000/svg">
<path d="M1 3C1.3 3.25 1.6 3.5 2.25 3.5C3.5 3.5 3.5 2.5 4.75 2.5C6.05 2.5 5.95 3.5 7.25 3.5C8.5 3.5 8.5 2.5 9.75 2.5C10.4 2.5 10.7 2.75 11 3" stroke="#94A3B8" stroke-linecap="round" stroke-linejoin="round"/>
<path d="M1 6C1.3 6.25 1.6 6.5 2.25 6.5C3.5 6.5 3.5 5.5 4.75 5.5C6.05 5.5 5.95 6.5 7.25 6.5C8.5 6.5 8.5 5.5 9.75 5.5C10.4 5.5 10.7 5.75 11 6" stroke="#94A3B8" stroke-linecap="round" stroke-linejoin="round"/>
<path d="M1 9C1.3 9.25 1.6 9.5 2.25 9.5C3.5 9.5 3.5 8.5 4.75 8.5C6.05 8.5 5.95 9.5 7.25 9.5C8.5 9.5 8.5 8.5 9.75 8.5C10.4 8.5 10.7 8.75 11 9" stroke="#94A3B8" stroke-linecap="round" stroke-linejoin="round"/>
</svg>
