<svg width="25" height="26" viewBox="0 0 25 26" fill="none" xmlns="http://www.w3.org/2000/svg">
<g clip-path="url(#clip0_1614_528)">
<path d="M1.71315 0C2.06772 0.0859812 2.40936 0.160549 2.69014 0.415449L12.4844 10.2196L22.3144 0.415449C22.5952 0.160549 22.9368 0.0867421 23.2914 0H23.4869C23.6764 0.0753287 23.8796 0.0836986 24.0728 0.171202C24.5629 0.394144 24.8558 0.867421 25.0004 1.36961V1.90757C24.8855 2.20812 24.7904 2.52465 24.5621 2.7651L14.7983 12.5472L24.5621 22.3293C24.7873 22.575 24.9083 22.871 25.0004 23.186V23.724C24.8246 24.3806 24.3802 24.8463 23.7312 25.0449H22.9992L22.2414 24.6059L12.5209 14.874L2.7647 24.6059C2.54709 24.8227 2.28077 24.9239 2.00685 25.0449H1.27487C0.10385 24.6918 -0.40595 23.4211 0.37549 22.4076L10.2078 12.5472L0.354946 2.65781C-0.285729 1.78354 -0.0171323 0.660458 0.932466 0.171202L1.51836 0H1.71391H1.71315Z" fill="white"/>
</g>
<defs>
<clipPath id="clip0_1614_528">
<rect width="25" height="25.0441" fill="white"/>
</clipPath>
</defs>
</svg>
