<svg width="23" height="23" viewBox="0 0 23 23" fill="none" xmlns="http://www.w3.org/2000/svg">
<g clip-path="url(#clip0_1359_119)">
<path d="M22.3804 20.7714L19.1736 17.5758C22.9222 12.9449 22.2067 6.15164 17.5758 2.40308C12.9449 -1.34549 6.15164 -0.629983 2.40308 4.00088C-1.34549 8.63173 -0.629983 15.425 4.00088 19.1736C7.95872 22.3772 13.618 22.3772 17.5758 19.1736L20.7714 22.3804C21.2123 22.825 21.9294 22.8276 22.374 22.3867C22.3761 22.3846 22.3782 22.3825 22.3804 22.3804C22.825 21.9395 22.8276 21.2224 22.3867 20.7778C22.3846 20.7757 22.3825 20.7735 22.3804 20.7714ZM2.31171 10.8106C2.31171 6.11658 6.11658 2.31171 10.8106 2.31171C15.5047 2.31171 19.3096 6.11658 19.3096 10.8106C19.3096 15.5047 15.5047 19.3096 10.8106 19.3096C6.11658 19.3096 2.31171 15.5047 2.31171 10.8106Z" fill="white"/>
</g>
<defs>
<clipPath id="clip0_1359_119">
<rect width="22.7155" height="22.7155" fill="white"/>
</clipPath>
</defs>
</svg>
