<svg width="10" height="12" viewBox="0 0 10 12" fill="none" xmlns="http://www.w3.org/2000/svg">
<g clip-path="url(#clip0_324_83)">
<path d="M4.90601 12C2.49428 11.0428 0.698642 8.88322 0.172722 6.34844C-0.0151066 5.43714 -8.03363e-05 4.49521 -8.03363e-05 3.59158C-8.03363e-05 3.20868 0.00743281 2.82578 -8.03363e-05 2.45054C0.014946 2.2208 0.142669 2.0217 0.338011 1.91449C0.954089 1.66177 1.55514 1.4014 2.15619 1.14869C3.06528 0.750479 4.00443 0.352265 4.93606 0C4.9586 0 4.97362 0 4.98865 0C5.1314 0 5.21404 0.0306318 5.28918 0.0612636C6.08557 0.359923 6.83688 0.696873 7.56566 1.01851C8.24184 1.32482 8.94057 1.6388 9.63177 1.89917C9.84966 2.01404 9.97738 2.21315 9.99241 2.42757C9.97738 2.83344 9.99241 3.23165 9.99241 3.62987C9.99992 4.39566 10.0149 5.18443 9.89474 5.95022C9.57918 7.99489 8.39962 9.9247 6.72419 11.1117C6.24335 11.4563 5.70991 11.7473 5.13891 11.977H5.10886L4.89849 11.9847L4.90601 12ZM1.20202 3.806C1.19451 4.4799 1.187 5.18443 1.29969 5.85833C1.6453 7.97192 3.10285 9.87109 5.01119 10.7135C6.85191 9.87875 8.24936 8.10211 8.66258 6.08041C8.82787 5.25335 8.81284 4.388 8.79782 3.54563C8.79782 3.32355 8.7903 3.09381 8.7903 2.87173L4.99616 1.26356L1.21705 2.87173C1.21705 3.19336 1.20954 3.49968 1.20202 3.81366V3.806Z" fill="#94A3B8"/>
<path d="M4.50037 7.5201C4.35762 7.5201 4.21487 7.4665 4.10218 7.36694C3.91435 7.14486 3.70398 6.94576 3.49361 6.75431C3.2607 6.53223 3.01277 6.30249 2.81743 6.05744C2.64462 5.84301 2.60706 5.58264 2.70473 5.36056C2.8024 5.1538 2.99774 5.02361 3.22314 5.02361C3.3734 5.02361 3.53118 5.08488 3.67393 5.19975C3.8317 5.32993 3.97445 5.49075 4.12471 5.65156C4.24493 5.78175 4.37265 5.91959 4.50037 6.03446L6.32607 4.18124C6.41622 4.10466 6.5139 4.03574 6.62659 4.02042C6.66416 4.02042 6.70172 4.01276 6.73929 4.01276C6.95717 4.01276 7.15251 4.12763 7.2577 4.31142C7.37039 4.50287 7.36288 4.74027 7.2577 4.93938L4.93614 7.33631C4.80841 7.45884 4.65815 7.5201 4.50037 7.5201Z" fill="#94A3B8"/>
</g>
<defs>
<clipPath id="clip0_324_83">
<rect width="10" height="12" fill="white"/>
</clipPath>
</defs>
</svg>
