<svg width="39" height="11" viewBox="0 0 39 11" fill="none" xmlns="http://www.w3.org/2000/svg">
<path d="M5.6076 0.0078125C5.71255 0.0225764 5.81377 0.058948 5.90448 0.115234C5.99536 0.171656 6.07314 0.246264 6.13299 0.333984L6.1867 0.425781L7.34198 2.76562C7.38217 2.84689 7.44154 2.91733 7.51483 2.9707C7.58825 3.0241 7.67403 3.05905 7.76385 3.07227L10.3469 3.4502H10.3459C10.487 3.47066 10.6196 3.53027 10.7287 3.62207C10.8107 3.69112 10.8774 3.77643 10.924 3.87207L10.964 3.9707L10.9894 4.07422C11.0079 4.17881 11.0043 4.28674 10.9787 4.39062C10.9445 4.52912 10.8719 4.65529 10.7697 4.75488L8.90155 6.57324L8.90252 6.57422C8.83741 6.6377 8.78808 6.71625 8.75995 6.80273C8.73193 6.88902 8.72521 6.98088 8.74042 7.07031L9.18182 9.64062H9.18084C9.20516 9.78105 9.19029 9.92545 9.1369 10.0576C9.0832 10.1905 8.99306 10.3054 8.87713 10.3896C8.76113 10.4739 8.62366 10.5242 8.48065 10.5342C8.33781 10.5441 8.19496 10.5135 8.06854 10.4463V10.4453L5.76092 9.2334V9.23242C5.68089 9.19064 5.59145 9.169 5.50116 9.16895C5.41051 9.16898 5.3207 9.19133 5.24042 9.2334L2.93182 10.4463L2.9328 10.4473C2.80638 10.5141 2.66332 10.5443 2.52069 10.5342C2.37804 10.524 2.24085 10.4737 2.12518 10.3896C2.00945 10.3054 1.91906 10.1903 1.86542 10.0576C1.8118 9.92495 1.79678 9.77961 1.82147 9.63867L2.2619 7.07129C2.27728 6.98164 2.27047 6.88924 2.24237 6.80273C2.21422 6.71621 2.16497 6.6377 2.09979 6.57422V6.57324L0.232603 4.75586L0.233579 4.75488C0.131184 4.65553 0.0571841 4.53006 0.0226417 4.3916C-0.0118963 4.25276 -0.00684867 4.1068 0.0372902 3.9707L0.0773292 3.87109C0.124009 3.77546 0.190606 3.6901 0.272642 3.62109L0.359556 3.55859C0.449279 3.50245 0.549966 3.46452 0.655454 3.44922L3.23846 3.07227L3.30487 3.05859C3.37035 3.04082 3.43228 3.01078 3.48749 2.9707C3.56089 2.91737 3.62009 2.84694 3.66034 2.76562L4.81561 0.425781L4.86932 0.333984C4.92914 0.2463 5.00701 0.17165 5.09784 0.115234L5.19159 0.0654297C5.28866 0.0224854 5.39424 2.72772e-05 5.50116 0L5.6076 0.0078125Z" fill="#FFB700"/>
<path d="M19.6086 0.0078125C19.7135 0.0225764 19.8147 0.058948 19.9055 0.115234C19.9963 0.171656 20.0741 0.246264 20.134 0.333984L20.1877 0.425781L21.343 2.76562C21.3832 2.84689 21.4425 2.91733 21.5158 2.9707C21.5892 3.0241 21.675 3.05905 21.7648 3.07227L24.3478 3.4502H24.3469C24.488 3.47066 24.6206 3.53027 24.7297 3.62207C24.8116 3.69112 24.8784 3.77643 24.925 3.87207L24.965 3.9707L24.9904 4.07422C25.0089 4.17881 25.0053 4.28674 24.9797 4.39062C24.9455 4.52912 24.8728 4.65529 24.7707 4.75488L22.9025 6.57324L22.9035 6.57422C22.8384 6.6377 22.7891 6.71625 22.7609 6.80273C22.7329 6.88902 22.7262 6.98088 22.7414 7.07031L23.1828 9.64062H23.1818C23.2061 9.78105 23.1913 9.92545 23.1379 10.0576C23.0842 10.1905 22.994 10.3054 22.8781 10.3896C22.7621 10.4739 22.6246 10.5242 22.4816 10.5342C22.3388 10.5441 22.1959 10.5135 22.0695 10.4463V10.4453L19.7619 9.2334V9.23242C19.6819 9.19064 19.5924 9.169 19.5021 9.16895C19.4115 9.16898 19.3217 9.19133 19.2414 9.2334L16.9328 10.4463L16.9338 10.4473C16.8074 10.5141 16.6643 10.5443 16.5217 10.5342C16.379 10.524 16.2418 10.4737 16.1262 10.3896C16.0104 10.3054 15.92 10.1903 15.8664 10.0576C15.8128 9.92495 15.7978 9.77961 15.8224 9.63867L16.2629 7.07129C16.2783 6.98164 16.2714 6.88924 16.2433 6.80273C16.2152 6.71621 16.1659 6.6377 16.1008 6.57422V6.57324L14.2336 4.75586L14.2346 4.75488C14.1322 4.65553 14.0582 4.53006 14.0236 4.3916C13.9891 4.25276 13.9941 4.1068 14.0383 3.9707L14.0783 3.87109C14.125 3.77546 14.1916 3.6901 14.2736 3.62109L14.3605 3.55859C14.4503 3.50245 14.5509 3.46452 14.6564 3.44922L17.2394 3.07227L17.3058 3.05859C17.3713 3.04082 17.4333 3.01078 17.4885 2.9707C17.5619 2.91737 17.6211 2.84694 17.6613 2.76562L18.8166 0.425781L18.8703 0.333984C18.9301 0.2463 19.008 0.17165 19.0988 0.115234L19.1926 0.0654297C19.2896 0.0224854 19.3952 2.72772e-05 19.5021 0L19.6086 0.0078125Z" fill="#FFB700"/>
<path d="M33.6098 0.0078125C33.7147 0.0225764 33.816 0.058948 33.9067 0.115234C33.9976 0.171656 34.0753 0.246264 34.1352 0.333984L34.1889 0.425781L35.3442 2.76562C35.3844 2.84689 35.4437 2.91733 35.517 2.9707C35.5905 3.0241 35.6762 3.05905 35.766 3.07227L38.3491 3.4502H38.3481C38.4892 3.47066 38.6218 3.53027 38.7309 3.62207C38.8129 3.69112 38.8796 3.77643 38.9262 3.87207L38.9662 3.9707L38.9916 4.07422C39.0101 4.17881 39.0065 4.28674 38.9809 4.39062C38.9467 4.52912 38.8741 4.65529 38.7719 4.75488L36.9037 6.57324L36.9047 6.57422C36.8396 6.6377 36.7903 6.71625 36.7621 6.80273C36.7341 6.88902 36.7274 6.98088 36.7426 7.07031L37.184 9.64062H37.183C37.2074 9.78105 37.1925 9.92545 37.1391 10.0576C37.0854 10.1905 36.9953 10.3054 36.8793 10.3896C36.7633 10.4739 36.6259 10.5242 36.4828 10.5342C36.34 10.5441 36.1972 10.5135 36.0707 10.4463V10.4453L33.7631 9.2334V9.23242C33.6831 9.19064 33.5936 9.169 33.5034 9.16895C33.4127 9.16898 33.3229 9.19133 33.2426 9.2334L30.934 10.4463L30.935 10.4473C30.8086 10.5141 30.6655 10.5443 30.5229 10.5342C30.3802 10.524 30.2431 10.4737 30.1274 10.3896C30.0116 10.3054 29.9213 10.1903 29.8676 10.0576C29.814 9.92495 29.799 9.77961 29.8237 9.63867L30.2641 7.07129C30.2795 6.98164 30.2727 6.88924 30.2446 6.80273C30.2164 6.71621 30.1672 6.6377 30.102 6.57422V6.57324L28.2348 4.75586L28.2358 4.75488C28.1334 4.65553 28.0594 4.53006 28.0248 4.3916C27.9903 4.25276 27.9953 4.1068 28.0395 3.9707L28.0795 3.87109C28.1262 3.77546 28.1928 3.6901 28.2748 3.62109L28.3618 3.55859C28.4515 3.50245 28.5522 3.46452 28.6577 3.44922L31.2407 3.07227L31.3071 3.05859C31.3725 3.04082 31.4345 3.01078 31.4897 2.9707C31.5631 2.91737 31.6223 2.84694 31.6625 2.76562L32.8178 0.425781L32.8715 0.333984C32.9313 0.2463 33.0092 0.17165 33.1 0.115234L33.1938 0.0654297C33.2909 0.0224854 33.3964 2.72772e-05 33.5034 0L33.6098 0.0078125Z" fill="#FFB700"/>
</svg>
