<svg width="1909" height="351" viewBox="0 0 1909 351" xmlns="http://www.w3.org/2000/svg">
<path d="M199.508 0L255.27 288.228L400.913 341.155L199.508 0Z" fill="#555"/>
<path d="M7.90625 350.208L400.921 350.204L124.476 249.73L7.90625 350.208Z" fill="#555"/>
<path d="M0 345.545L220.733 155.29L192.905 11.4492L0 345.545Z" fill="#555"/>
<rect x="1883.3" y="109.598" width="25.328" height="184.647" fill="#555"/>
<path d="M1883.3 52.6406C1897.29 52.6406 1908.63 63.98 1908.63 77.9704V83.0471H1883.3V52.6406Z" fill="#555"/>
<path d="M599.476 59.4538C604.104 64.0819 606.295 69.6836 606.295 76.259H525.681V294.233H500.108V76.259H442.874C436.299 76.259 430.454 73.8221 426.069 69.1958C421.441 64.3239 419.25 58.966 419.25 52.3906H582.426C589.245 52.3906 594.847 54.8257 599.476 59.4538Z" fill="#555"/>
<path d="M1217.6 59.4599C1224.42 54.8318 1232.21 52.6406 1240.49 52.6406L1128.7 294.483L1017.16 52.6406C1025.68 52.6406 1033.47 55.0757 1040.54 59.9476C1047.6 64.8178 1052.47 71.1511 1055.64 78.944L1128.7 237.006L1202.74 78.2124C1205.66 70.1756 1210.78 64.088 1217.6 59.4599Z" fill="#555"/>
<path d="M1424.4 294.231H1271.94V52.3906H1423.42V76.0133H1297.02V159.55H1397.12C1397.12 166.129 1394.93 171.483 1390.3 176.111C1385.92 180.737 1380.32 182.932 1373.98 182.932H1297.27V270.363H1424.64L1424.4 294.231Z" fill="#555"/>
<path d="M1490.92 270.365V77.7185C1490.92 70.6554 1488.48 64.8116 1483.37 59.9397C1478.49 55.0695 1472.41 52.3906 1465.59 52.3906V294.231H1578.84L1590.77 270.365H1490.92Z" fill="#555"/>
<path d="M1735.44 52.8555L1598.32 328.309H1626.08L1735.19 108.141L1785.37 209.458H1737.63C1729.35 209.7 1722.77 211.893 1717.9 216.034C1713.03 220.174 1709.38 224.558 1706.94 229.428L1705.48 232.595H1797.05L1827.74 294.456H1855.51L1735.44 52.8555Z" fill="#555"/>
<path d="M663.252 294.236V76.5071H719.999C741.43 76.5071 757.018 80.8894 766.516 89.8999C776.014 98.9122 780.884 110.358 780.884 123.754C780.884 137.149 775.77 148.838 765.542 158.582C755.313 168.322 739.969 173.192 719.755 173.192H715.858C712.691 173.192 710.257 174.412 708.307 176.359C706.36 178.55 705.385 180.741 705.385 183.666C705.385 185.613 705.872 187.564 707.334 189.51L713.423 197.791L765.542 269.394C771.144 277.187 778.449 283.276 786.974 287.66C794.255 291.404 802.249 293.538 810.496 294.236H814.56L740.213 191.947C759.453 189.512 775.284 182.449 787.704 170.515C800.368 158.584 806.458 142.751 806.458 122.779C806.458 109.874 803.291 97.9367 797.204 87.4648C791.114 76.993 781.616 68.4703 768.951 62.1388C756.286 55.8054 740.457 52.6406 721.46 52.6406H637.922V294.236H663.252Z" fill="#555"/>
<path d="M1012.51 209.738H964.773C956.492 209.982 949.917 212.173 945.045 216.313C940.174 220.455 936.52 224.838 934.085 229.71L932.624 232.874H1024.2L1054.64 294.248H1082.53L962.823 53.1367L842.875 294.248H870.394L962.336 108.422L1012.51 209.738Z" fill="#555"/>
<rect x="1883.3" y="83.0234" width="25.3298" height="4.39774" fill="#555"/>
</svg>
