<svg width="249" height="46" viewBox="0 0 249 46" fill="none" xmlns="http://www.w3.org/2000/svg">
<path d="M52.15 44.36L25.96 0L33.21 37.48L52.16 44.36H52.15Z" fill="white"/>
<path d="M1.03003 45.5397H52.15L16.19 32.4697L1.03003 45.5397Z" fill="white"/>
<path d="M28.71 20.2002L25.09 1.49023L0 44.9302L28.71 20.1902V20.2002Z" fill="white"/>
<path d="M244.98 14.25H248.27V38.26H244.98V14.25Z" fill="white"/>
<path d="M244.98 6.84961C246.8 6.84961 248.27 8.31961 248.27 10.1396V10.7996H244.98V6.84961Z" fill="white"/>
<path d="M77.98 7.72957C78.58 8.32957 78.87 9.05957 78.87 9.91957H68.38V38.2596H65.05V9.91957H57.6C56.74 9.91957 55.98 9.59957 55.41 8.99957C54.81 8.36957 54.52 7.66957 54.52 6.80957H75.75C76.64 6.80957 77.37 7.12957 77.97 7.72957H77.98Z" fill="white"/>
<path d="M158.39 7.72984C159.28 7.12984 160.29 6.83984 161.37 6.83984L146.83 38.2898L132.32 6.83984C133.43 6.83984 134.44 7.15984 135.36 7.78984C136.28 8.41984 136.91 9.24984 137.32 10.2598L146.82 30.8098L156.45 10.1598C156.83 9.11984 157.5 8.31984 158.38 7.71984L158.39 7.72984Z" fill="white"/>
<path d="M185.29 38.2596H165.46V6.80957H185.17V9.87957H168.73V20.7396H181.75C181.75 21.5996 181.46 22.2896 180.86 22.8896C180.29 23.4896 179.56 23.7796 178.74 23.7796H168.76V35.1496H185.33L185.3 38.2496L185.29 38.2596Z" fill="white"/>
<path d="M193.95 35.1603V10.1103C193.95 9.19031 193.63 8.43031 192.97 7.80031C192.34 7.17031 191.54 6.82031 190.66 6.82031V38.2703H205.39L206.94 35.1703H193.95V35.1603Z" fill="white"/>
<path d="M225.75 6.88012L207.91 42.7001H211.52L225.71 14.0701L232.24 27.2401H226.03C224.95 27.2701 224.1 27.5601 223.46 28.1001C222.83 28.6401 222.35 29.2101 222.03 29.8401L221.84 30.2501H233.75L237.74 38.2901H241.35L225.73 6.87012L225.75 6.88012Z" fill="white"/>
<path d="M86.28 38.2596V9.94961H93.66C96.45 9.94961 98.48 10.5196 99.71 11.6896C100.95 12.8596 101.58 14.3496 101.58 16.0896C101.58 17.8296 100.91 19.3496 99.58 20.6196C98.25 21.8896 96.25 22.5196 93.62 22.5196H93.11C92.7 22.5196 92.38 22.6796 92.13 22.9296C91.88 23.2096 91.75 23.4996 91.75 23.8796C91.75 24.1296 91.81 24.3896 92 24.6396L92.79 25.7196L99.57 35.0296C100.3 36.0396 101.25 36.8396 102.36 37.4096C103.31 37.8996 104.35 38.1696 105.42 38.2696H105.95L96.28 24.9696C98.78 24.6496 100.84 23.7296 102.46 22.1796C104.11 20.6296 104.9 18.5696 104.9 15.9696C104.9 14.2896 104.49 12.7396 103.7 11.3796C102.91 10.0196 101.67 8.90961 100.02 8.08961C98.37 7.26961 96.31 6.84961 93.84 6.84961H82.97V38.2596H86.26H86.28Z" fill="white"/>
<path d="M131.71 27.2702H125.5C124.42 27.3002 123.57 27.5902 122.93 28.1302C122.3 28.6702 121.82 29.2402 121.5 29.8702L121.31 30.2802H133.22L137.18 38.2602H140.81L125.24 6.91016L109.64 38.2602H113.22L125.18 14.1002L131.71 27.2702Z" fill="white"/>
<path d="M248.28 11.2498H244.99V10.7998H248.28V11.2498Z" fill="white"/>
</svg>
