<svg width="12" height="12" viewBox="0 0 12 12" fill="none" xmlns="http://www.w3.org/2000/svg">
<g clip-path="url(#clip0_324_9)">
<path d="M1.5465 0C1.43471 0.0397621 1.31385 0.0513463 1.19987 0.0870382C0.562363 0.287727 0.0544834 0.939261 -0.000312581 1.60551V7.58078C0.0422717 7.91515 0.16251 8.25454 0.374805 8.51816C0.418955 8.57295 0.684481 8.8037 0.677279 8.84346C-0.582715 9.86068 0.0278685 11.8535 1.62728 11.9997H11.0046C11.525 11.959 11.9051 11.5911 12 11.0848V10.7802C11.9274 10.4709 11.7674 10.2254 11.5081 10.042C11.7874 9.78084 11.9255 9.41421 12 9.04602V2.95304C11.8754 2.12461 11.2131 1.47683 10.3721 1.40545L3.4822 1.40764C3.36886 0.875078 3.00595 0.402943 2.51279 0.170946C2.36186 0.0998748 2.10949 0.0162805 1.94541 0.000313087H1.54681L1.5465 0ZM0.702642 6.02286V1.62868C0.702642 1.17721 1.22524 0.744834 1.65484 0.706011C2.16209 0.659988 2.81213 1.08892 2.81213 1.62868V6.02286C2.1934 5.56011 1.31949 5.55197 0.702642 6.02286ZM3.5154 2.10927H10.3712C10.7685 2.10927 11.297 2.63995 11.297 3.03507V7.42924C11.1132 7.29649 10.9085 7.1938 10.6874 7.13651C10.627 7.12085 10.4679 7.07765 10.4181 7.07765H3.51571V2.10927H3.5154ZM2.74199 7.07765H1.6755C1.65953 7.07765 1.51018 7.17001 1.48888 7.19568C1.30477 7.41735 1.4391 7.74233 1.72185 7.78115L10.3646 7.7871C11.6095 7.97746 11.5942 9.71478 10.3448 9.88698L1.72185 9.88917C1.29068 9.9618 1.30414 10.5507 1.7447 10.5939L10.9811 10.592C11.4129 10.6656 11.3982 11.2536 10.9583 11.2968H1.69805C0.379814 11.1753 0.374179 9.27927 1.72122 9.18535L10.2778 9.18691C10.699 9.11303 10.6977 8.55573 10.2778 8.48278L1.72122 8.48435C0.850434 8.44364 0.384198 7.4283 0.94844 6.74859C1.4629 6.12931 2.49901 6.31152 2.74168 7.07702L2.74199 7.07765Z" fill="#94A3B8"/>
</g>
<defs>
<clipPath id="clip0_324_9">
<rect width="12" height="11.9997" fill="white" transform="matrix(-1 0 0 1 12 0)"/>
</clipPath>
</defs>
</svg>
