<svg width="11" height="12" viewBox="0 0 11 12" fill="none" xmlns="http://www.w3.org/2000/svg">
<g clip-path="url(#clip0_245_1499)">
<path d="M4.24612 12C3.11201 12 2.04565 11.5377 1.24371 10.6981C0.441774 9.8585 0 8.74257 0 7.55524C0 6.84593 0.154967 6.16823 0.460776 5.54111C0.752591 4.94251 1.17978 4.40991 1.69653 4.00082C1.79479 3.92249 1.91234 3.88116 2.03667 3.88116C2.34734 3.88116 2.60012 4.14577 2.60012 4.47097C2.60012 4.6574 2.51821 4.82902 2.37547 4.9422L2.36663 4.94899C1.57884 5.57256 1.12719 6.52242 1.12719 7.55493C1.12719 9.3555 2.52661 10.8204 4.24671 10.8204C5.38392 10.8204 6.43437 10.166 6.98883 9.11218L6.99075 9.10832C7.08929 8.91959 7.27814 8.80239 7.48378 8.80239C7.57953 8.80239 7.67293 8.82738 7.75394 8.87471L7.76646 8.88196L7.76676 8.88227C7.94043 8.98759 8.04767 9.18172 8.04767 9.3922C8.04767 9.49135 8.02425 9.58819 7.97977 9.67238L7.96916 9.69459L7.96813 9.69644C7.22069 11.1174 5.79461 12.0002 4.24627 12.0002L4.24612 12ZM8.94743 10.4577C8.7082 10.4577 8.49387 10.2977 8.41403 10.0594L7.41263 6.98826H4.1598C3.8808 6.98826 3.64658 6.77808 3.60313 6.4885L3.04852 2.71296C2.48625 2.54103 2.09868 2.0035 2.09868 1.38439C2.09868 0.620956 2.69203 0 3.4212 0C4.15037 0 4.74358 0.620955 4.74358 1.38424C4.74358 1.84668 4.52733 2.26995 4.16186 2.5307L4.36029 3.88116H6.00158C6.31225 3.88116 6.56503 4.14577 6.56503 4.47097C6.56503 4.79618 6.31225 5.06078 6.00158 5.06078H4.53381L4.64385 5.80864H7.8164C8.05563 5.80864 8.26996 5.9687 8.3498 6.20693L9.31422 9.16399L10.2804 8.91126C10.3265 8.89861 10.3739 8.89229 10.4215 8.89229C10.6793 8.89229 10.9038 9.0761 10.9674 9.33916L11 9.47362H10.9835C10.9835 9.47655 10.9835 9.47948 10.9835 9.48256C10.9835 9.75226 10.8082 9.98756 10.5572 10.0548L9.08722 10.4395C9.04126 10.4517 8.99427 10.4579 8.94743 10.4579V10.4577Z" fill="#94A3B8"/>
</g>
<defs>
<clipPath id="clip0_245_1499">
<rect width="11" height="12" fill="white"/>
</clipPath>
</defs>
</svg>
